<svg width="22" height="21" viewBox="0 0 22 21" fill="none" xmlns="http://www.w3.org/2000/svg">
<path d="M15.7894 13.5755C17.0609 11.8411 17.6304 9.69071 17.3839 7.55461C17.1375 5.4185 16.0933 3.45418 14.4602 2.05464C12.8271 0.655095 10.7256 -0.0764598 8.57613 0.00633226C6.42664 0.0891243 4.38768 0.980157 2.86718 2.50117C1.34668 4.02218 0.456772 6.06099 0.375486 8.20972C0.294201 10.3585 1.02754 12.4586 2.42878 14.0901C3.83002 15.7215 5.79584 16.764 7.93293 17.0088C10.07 17.2536 12.2208 16.6828 13.9549 15.4105C13.9935 15.463 14.035 15.5134 14.0823 15.5615L19.1379 20.6151C19.3841 20.8614 19.7181 20.9999 20.0665 21C20.4148 21.0001 20.7489 20.8619 20.9953 20.6158C21.2417 20.3697 21.3802 20.0358 21.3803 19.6876C21.3804 19.3394 21.2422 19.0054 20.996 18.7591L15.9404 13.7054C15.8935 13.6579 15.843 13.6153 15.7894 13.5755ZM16.1282 8.5297C16.1282 9.47778 15.9414 10.4166 15.5784 11.2925C15.2155 12.1684 14.6835 12.9643 14.0128 13.6347C13.3422 14.305 12.546 14.8368 11.6698 15.1996C10.7935 15.5625 9.85438 15.7492 8.90594 15.7492C7.9575 15.7492 7.01835 15.5625 6.14211 15.1996C5.26586 14.8368 4.46969 14.305 3.79904 13.6347C3.1284 12.9643 2.59641 12.1684 2.23346 11.2925C1.87051 10.4166 1.6837 9.47778 1.6837 8.5297C1.6837 6.61497 2.44461 4.77866 3.79904 3.42475C5.15348 2.07083 6.99048 1.3102 8.90594 1.3102C10.8214 1.3102 12.6584 2.07083 14.0128 3.42475C15.3673 4.77866 16.1282 6.61497 16.1282 8.5297Z" fill="black"/>
</svg>
