<?xml version="1.0" encoding="utf-8"?>
<!-- Generator: Adobe Illustrator 27.0.0, SVG Export Plug-In . SVG Version: 6.00 Build 0)  -->
<svg version="1.1" id="_圖層_1" xmlns="http://www.w3.org/2000/svg" xmlns:xlink="http://www.w3.org/1999/xlink" x="0px" y="0px"
	 viewBox="0 0 100 100" style="enable-background:new 0 0 100 100;" xml:space="preserve">
<style type="text/css">
	.st0{fill:#FFFFFF;}
	.st1{fill:#231815;}
</style>
<g>
	<path class="st0" d="M48.5,98.2L48,97.9c-0.2-0.1-37.1-19.4-37.2-64.3V2.2h77.6v31.4C88.3,78.5,51.5,97.8,51.3,98l-1.6,0.8
		L48.5,98.2z"/>
	<path class="st1" d="M13.2,4.6v25.5h72.9V4.6H13.2z M76,11.5h0.7c0.1,0,0.2,0.1,0.2,0.2V23L76,22.2c0-0.1,0.1-0.1,0.1-0.2V11.6
		C76.1,11.5,76.1,11.5,76,11.5 M76.7,23.2H71c-0.1-0.3-0.2-0.6-0.5-0.8h5.2c0.1,0,0.1,0,0.2,0L76.7,23.2z M64.3,11.6
		c0.1-0.1,0.4-0.2,0.5-0.2H65c1.1,0,2.3,0.1,3.2,0.4c1,0.4,1.6,1,1.6,2.1h0.3c0-1.1,0.6-1.7,1.6-2.1c0.9-0.4,2.2-0.4,3.2-0.4h0.3
		c0,0,0.2,0,0.3,0.1c0.1,0,0.1,0.1,0.1,0.1c0,0,0,0,0,0V22c0,0.1-0.1,0.2-0.1,0.2H64.4c-0.1,0-0.1-0.1-0.1-0.2L64.3,11.6L64.3,11.6
		L64.3,11.6z M64.4,22.5h4.9c-0.3,0.2-0.5,0.4-0.5,0.8h-5.6l1-0.8C64.3,22.5,64.3,22.5,64.4,22.5 M63.1,11.7c0-0.1,0.1-0.2,0.2-0.2
		H64c0,0-0.1,0.1-0.1,0.1V22c0,0.1,0,0.1,0,0.2l-0.9,0.8V11.7L63.1,11.7L63.1,11.7z M56.5,11.5c0.1,0,0.3,0.1,0.3,0.2V23l-0.9-0.8
		c0-0.1,0.1-0.1,0.1-0.2V11.6c0-0.1,0-0.1-0.1-0.1H56.5 M56.5,23.3h-5.8c0-0.3-0.2-0.6-0.5-0.8h5.2c0.1,0,0.1,0,0.2,0L56.5,23.3z
		 M49.9,13.6c0-1,0.5-1.5,1.3-1.8c0.7-0.3,1.7-0.4,2.5-0.4c0.8,0,1,0,1.3,0s0.2,0,0.3,0.1c0.1,0,0.1,0.1,0.1,0.1l0,0V22
		c0,0.1-0.1,0.1-0.1,0.1h-5.4L49.9,13.6L49.9,13.6L49.9,13.6z M44,11.6c0,0,0.1-0.1,0.2-0.1c0.1,0,0.2-0.1,0.3-0.1
		c0.3,0,0.8,0,1.3,0c0.8,0,1.8,0.1,2.5,0.4c0.7,0.3,1.2,0.8,1.2,1.8v8.5h-5.4c-0.1,0-0.2-0.1-0.2-0.1L44,11.6L44,11.6L44,11.6z
		 M44.2,22.5H49c-0.3,0.2-0.4,0.4-0.5,0.8H43l1-0.8C44,22.5,44.1,22.5,44.2,22.5 M42.8,11.7c0-0.1,0.1-0.2,0.2-0.2h0.7
		c0,0.1,0,0.1,0,0.1V22c0,0.1,0,0.1,0,0.2L42.8,23V11.7L42.8,11.7L42.8,11.7z M35.6,11.5h0.7c0.2,0,0.3,0.1,0.3,0.2V23l-0.9-0.8
		c0-0.1,0-0.1,0-0.2V11.6C35.6,11.6,35.6,11.5,35.6,11.5 M36.3,23.3h-5.8c0-0.3-0.2-0.6-0.5-0.8h5.2c0.1,0,0.2,0,0.2,0L36.3,23.3
		L36.3,23.3L36.3,23.3z M29.7,13.6c0-1,0.5-1.5,1.3-1.8c0.7-0.3,1.7-0.4,2.5-0.4s1,0,1.3,0s0.2,0,0.3,0.1c0.1,0.1,0.1,0.1,0.1,0.1
		l0,0V22c0,0.1-0.1,0.1-0.2,0.1h-5.4L29.7,13.6L29.7,13.6L29.7,13.6z M23.8,11.6c0,0,0.1-0.1,0.2-0.1c0.1,0,0.2-0.1,0.3-0.1
		c0.3,0,0.8,0,1.3,0c0.8,0,1.8,0.1,2.5,0.4c0.7,0.3,1.2,0.8,1.2,1.8l0,0v8.5h-5.4c-0.1,0-0.2-0.1-0.2-0.1L23.8,11.6L23.8,11.6z
		 M23.9,22.5h4.8c-0.3,0.2-0.4,0.4-0.5,0.8h-5.5c0,0-0.1,0-0.1,0l1-0.8C23.7,22.5,23.8,22.5,23.9,22.5 M22.6,11.7
		c0-0.1,0.1-0.2,0.2-0.2h0.7c0,0.1,0,0.1,0,0.1V22c0,0.1,0,0.1,0,0.1l-0.9,0.8L22.6,11.7L22.6,11.7L22.6,11.7z M21.3,24.1
		c-0.2,0-0.3-0.2-0.3-0.3v-1.7c-0.5-0.1-0.8-0.4-0.8-0.7s0.4-0.7,0.8-0.7v-5.5c-0.5-0.1-0.8-0.4-0.8-0.7s0.4-0.6,0.8-0.7v-2.2
		c0-0.2,0.1-0.3,0.3-0.3l0.9,0.2c-0.1,0.1-0.1,0.2-0.1,0.3v11.4c0,0.3,0.3,0.5,0.6,0.5h5.5c0,0.2,0.1,0.3,0.2,0.5H21.3L21.3,24.1z
		 M29.7,24.1h-0.6c-0.3-0.1-0.4-0.4-0.4-0.7s0.3-0.7,0.7-0.7c0.4,0,0.7,0.3,0.7,0.7S29.9,24,29.7,24.1 M38.5,21.4
		c0,0.3-0.4,0.6-0.8,0.7v1.7c0,0.2-0.1,0.3-0.3,0.3h-7.1c0.1-0.1,0.2-0.3,0.2-0.5h5.8c0.3,0,0.6-0.2,0.6-0.5V11.7
		c0-0.1-0.1-0.2-0.1-0.3l0.6-0.1c0.2,0,0.3,0.1,0.3,0.3v2.2c0.5,0.1,0.8,0.4,0.8,0.7s-0.4,0.6-0.8,0.7v5.5
		C38.1,20.7,38.5,21,38.5,21.4 M41.6,24.1c-0.2,0-0.3-0.2-0.3-0.3v-1.7c-0.5-0.1-0.8-0.4-0.8-0.7s0.4-0.7,0.8-0.7v-5.5
		c-0.5-0.1-0.8-0.4-0.8-0.7s0.4-0.6,0.8-0.7v-2.2c0-0.2,0.1-0.3,0.3-0.3l1,0.2c-0.1,0.1-0.1,0.2-0.1,0.3v11.4c0,0.3,0.3,0.5,0.6,0.5
		h5.5c0,0.2,0.1,0.3,0.2,0.5H41.6L41.6,24.1L41.6,24.1z M49.9,24.1h-0.6c-0.3-0.1-0.4-0.4-0.4-0.7s0.3-0.7,0.7-0.7s0.7,0.3,0.7,0.7
		S50.2,24,49.9,24.1 M58.7,21.4c0,0.3-0.4,0.6-0.8,0.7v1.7c0,0.2-0.1,0.3-0.3,0.3h-7.1c0.1-0.1,0.2-0.3,0.2-0.5h5.8
		c0.3,0,0.6-0.2,0.6-0.5V11.7c0-0.1-0.1-0.2-0.1-0.3l0.6-0.1c0.2,0,0.3,0.1,0.3,0.3v2.2c0.5,0.1,0.8,0.4,0.8,0.7s-0.4,0.6-0.8,0.7
		v5.5C58.4,20.7,58.7,21,58.7,21.4 M61.8,24.1c-0.2,0-0.3-0.2-0.3-0.3v-1.7c-0.5-0.1-0.8-0.4-0.8-0.7s0.4-0.7,0.8-0.7v-5.5
		c-0.5-0.1-0.8-0.4-0.8-0.7s0.4-0.6,0.8-0.7v-2.2c0-0.2,0.2-0.3,0.3-0.3l0.9,0.2c0,0.1-0.1,0.2-0.1,0.2v11.4c0,0.3,0.3,0.5,0.6,0.5
		h5.5c0,0.2,0.1,0.4,0.2,0.5H61.8L61.8,24.1L61.8,24.1z M70.2,24.1h-0.6c-0.3-0.1-0.4-0.4-0.4-0.7s0.3-0.7,0.7-0.7s0.8,0.3,0.8,0.7
		S70.4,24,70.2,24.1 M79,21.4c0,0.3-0.4,0.6-0.8,0.7v1.7c0,0.2-0.1,0.3-0.3,0.3h-7.1c0.1-0.2,0.2-0.3,0.2-0.5h5.8
		c0.3,0,0.6-0.2,0.6-0.5V11.7c0-0.1,0-0.2-0.1-0.3l0.6-0.1c0.2,0,0.3,0.1,0.3,0.3v2.2c0.5,0.1,0.8,0.4,0.8,0.7s-0.4,0.6-0.8,0.7v5.5
		C78.6,20.7,79,21,79,21.4 M32.5,19.4c-0.4,0-0.5-0.1-0.5-0.4v-1.8c0.5,0,0.8,0.2,0.9,1.2h0.1v-2.5H33c-0.1,0.9-0.4,1.1-0.9,1.1
		v-1.7c0-0.3,0.1-0.3,0.4-0.3c0.7,0,1.1,0.2,1.2,1.3h0.1v-1.5h-3.1v0.2c0.3,0,0.5,0,0.5,0.5v3.7c0,0.5-0.2,0.5-0.5,0.5v0.2h3.2
		l0.2-1.6H34C33.6,19.2,33.1,19.4,32.5,19.4 M72.7,19.3c0.2,0,0.4,0.3,0.9,0.3c1,0,1.4-0.9,1.4-1.6c0-0.7-0.4-1.3-0.6-1.4L73.6,16
		c-0.5-0.3-0.6-0.5-0.6-0.9c0-0.4,0.3-0.7,0.6-0.7c0.6,0,1,0.9,1.1,1.4h0.2v-1.6h-0.2c0,0.1-0.1,0.3-0.2,0.3c-0.1,0-0.4-0.3-0.9-0.3
		c-1,0-1.2,1-1.2,1.5c0,0.5,0,1,0.9,1.6l0.4,0.2c0.3,0.2,0.6,0.4,0.6,0.9s0,0.9-0.7,0.9c-0.7,0-1-0.9-1.1-1.6h-0.2v1.9h0.2
		C72.6,19.4,72.6,19.3,72.7,19.3 M24.9,15.2l1.4,4.5h0.2l1.2-4.4c0.1-0.4,0.2-0.6,0.5-0.6v-0.2h-1.2v0.2c0.3,0,0.5,0,0.5,0.3
		s-0.1,0.4-0.1,0.5L26.7,18L26,15.6c-0.1-0.2-0.2-0.5-0.2-0.7c0-0.3,0.1-0.3,0.5-0.3v-0.2h-1.8v0.2C24.7,14.7,24.8,14.7,24.9,15.2
		 M46.7,19.3c-0.4-0.1-0.5-0.1-0.5-0.7v-1.5h0.2l1.1,2.4h1.1v-0.2c-0.1,0-0.1,0-0.2-0.1L47.3,17c0.3-0.1,0.8-0.4,0.8-1.3
		c0-0.9-1.2-1.3-1.5-1.3h-1.7v0.2c0.3,0,0.5,0,0.5,0.7v3.3c0,0.6-0.1,0.6-0.5,0.7v0.2h1.8L46.7,19.3L46.7,19.3L46.7,19.3z M46.3,15
		c0-0.2,0-0.3,0.3-0.3c0.4,0,0.7,0.3,0.7,1.1c0,0.8-0.3,1.1-1,1.2L46.3,15L46.3,15L46.3,15z M65.9,14.6v4c0,0.6-0.1,0.6-0.5,0.7v0.2
		h1.9v-0.2c-0.4,0-0.5-0.1-0.5-0.7v-4c0.4,0,0.9,0.1,1,1.3H68v-1.5h-3.3v1.5h0.2C64.9,14.7,65.5,14.7,65.9,14.6 M69.2,19.3
		c-0.2,0-0.4,0-0.4-0.3c0-0.3,0.1-0.4,0.2-1h1.2c0.1,0.2,0.2,0.8,0.2,1c0,0.2-0.1,0.3-0.4,0.3v0.2h1.8v-0.2c-0.3,0-0.4-0.2-0.6-1
		l-1.2-4h-0.2l-1.2,4.1c-0.2,0.6-0.2,0.8-0.5,0.9v0.2h1.1L69.2,19.3L69.2,19.3L69.2,19.3z M69.6,15.9l0.5,1.8H69L69.6,15.9
		L69.6,15.9L69.6,15.9z M51.7,14.6c0.3,0,0.5,0,0.5,0.5v3.6c0,0.5-0.2,0.5-0.5,0.5v0.2h1.9v-0.2c-0.3,0-0.5-0.1-0.5-0.5v-3.6
		c0-0.5,0.3-0.5,0.5-0.5v-0.2h-1.9V14.6z"/>
	<path class="st1" d="M62.8,32.4c0.5,0.7,0.8,1.5,0.9,2.4c0.4,2.4-0.8,4.9-5.1,5.1c-0.1,3.6-0.9,5-5.4,5.1c0.4,3.8-1.6,5-3.7,5
		s-4.1-1.2-3.7-5c-4.5-0.1-5.4-1.5-5.4-5.1c-4.3-0.2-5.5-2.7-5.1-5.1c0.1-0.8,0.5-1.7,0.9-2.4h-23v1.2c0,43.5,35.8,62.2,35.9,62.3
		l0.5,0.3l0.5-0.3c0.1-0.1,35.9-18.8,35.9-62.3v-1.2L62.8,32.4L62.8,32.4z M32.9,72.3c0.9-0.5,1.5-1.8,1.7-2.7
		c0.2-1.2,0.5-1.6,1.1-1.7c0.6,0,0.9,0.5,1.1,1.7c0.2,0.9,0.8,2.2,1.7,2.7c0.5,0.3,2.3,0.3,1.9,1.3c-0.2,0.5-0.5,1.4-1,1
		c-0.5-0.4-1.3-1.5-1.6-1.6c-0.3-0.1-0.3,0.4-0.1,0.6c0.2,0.2,0.7,1,1,1.4c0.4,0.5,0.5,1.3-0.2,1.6c-0.7,0.3-1.4-0.1-1.4-0.5
		c0-0.6-0.3-2.2-0.6-2.2c-0.3,0-0.2,0.4-0.2,0.9c-0.1,0.9,0.5,1.7,0.5,2.2c-0.1,0.5-0.2,1-1,1c-0.8,0-0.9-0.5-1-1
		c-0.1-0.5,0.5-1.2,0.4-2.2c0-0.4,0-0.9-0.2-0.9s-0.6,1.6-0.6,2.2c0,0.4-0.7,0.8-1.4,0.5s-0.6-1.1-0.2-1.6c0.3-0.4,0.9-1.2,1-1.4
		c0.1-0.2,0.2-0.6-0.1-0.6c-0.3,0.1-1.1,1.2-1.6,1.6c-0.5,0.4-0.8-0.5-1-1C30.6,72.6,32.4,72.6,32.9,72.3 M33.5,69.3
		c0.5-0.1,0.3,0.5,0.2,1c-0.1,0.5-0.2,0.6-0.7-0.2C32.5,69.5,32.9,69.4,33.5,69.3 M37.8,69.4c0.6,0.1,1,0.2,0.5,0.9
		c-0.5,0.7-0.7,0.7-0.7,0.2C37.5,69.9,37.2,69.3,37.8,69.4 M63.2,74c-0.3,0-0.6,1.6-0.6,2.2c0,0.4-0.7,0.8-1.4,0.5
		c-0.7-0.3-0.6-1.1-0.2-1.6c0.3-0.4,0.9-1.2,1.1-1.4c0.1-0.2,0.2-0.6-0.1-0.6c-0.3,0.1-1.1,1.2-1.6,1.6c-0.5,0.4-0.8-0.5-1-1
		c-0.4-1,1.4-1.1,1.9-1.3c0.9-0.5,1.5-1.8,1.7-2.7c0.2-1.2,0.5-1.6,1.1-1.7c0.6,0,0.8,0.5,1.1,1.7c0.2,0.9,0.8,2.2,1.7,2.7
		c0.5,0.3,2.3,0.3,1.9,1.3c-0.2,0.5-0.6,1.4-1,1c-0.5-0.4-1.3-1.5-1.6-1.6c-0.3-0.1-0.3,0.4-0.1,0.6c0.2,0.2,0.7,1,1.1,1.4
		c0.4,0.5,0.5,1.3-0.2,1.6c-0.7,0.3-1.4-0.1-1.4-0.5c0-0.6-0.3-2.2-0.6-2.2s-0.3,0.4-0.2,0.9c-0.1,0.9,0.5,1.7,0.4,2.2
		c-0.1,0.5-0.2,1-1,1c-0.8,0-0.9-0.5-1-1c-0.1-0.5,0.5-1.2,0.4-2.2C63.5,74.4,63.5,74,63.2,74 M61.9,69.3c0.6-0.1,0.3,0.5,0.2,1
		c-0.1,0.5-0.2,0.6-0.7-0.2C60.8,69.5,61.3,69.4,61.9,69.3 M66.1,69.4c0.6,0.1,1,0.2,0.5,0.9c-0.5,0.7-0.7,0.7-0.7,0.2
		C65.8,69.9,65.6,69.3,66.1,69.4 M66.6,41.6c-0.5,0.7-0.7,0.7-0.7,0.2c-0.1-0.5-0.3-1.1,0.2-1C66.7,40.8,67.2,40.9,66.6,41.6
		 M61.9,40.6c0.6-0.1,0.3,0.5,0.2,1c-0.1,0.5-0.2,0.6-0.7-0.1C60.8,40.8,61.3,40.7,61.9,40.6 M61.3,43.6c0.9-0.5,1.5-1.8,1.7-2.7
		c0.2-1.2,0.5-1.7,1.1-1.7c0.6,0,0.8,0.5,1.1,1.7c0.2,0.9,0.8,2.2,1.7,2.7c0.5,0.3,2.3,0.3,1.9,1.3c-0.2,0.5-0.6,1.4-1,1
		c-0.5-0.4-1.3-1.5-1.6-1.6c-0.3-0.1-0.3,0.4-0.1,0.6c0.2,0.2,0.7,1,1.1,1.4c0.4,0.4,0.5,1.3-0.2,1.6c-0.7,0.3-1.4-0.1-1.4-0.5
		c0-0.6-0.3-2.2-0.6-2.2s-0.3,0.4-0.2,0.9c-0.1,0.9,0.5,1.7,0.4,2.2c-0.1,0.5-0.2,1-1,1c-0.8,0-0.9-0.5-1-1
		c-0.1-0.5,0.5-1.2,0.4-2.2c0-0.5,0-0.9-0.2-0.9s-0.6,1.6-0.6,2.2c0,0.4-0.7,0.8-1.4,0.5c-0.7-0.3-0.6-1.2-0.2-1.6
		c0.3-0.4,0.9-1.2,1.1-1.4c0.1-0.1,0.2-0.6-0.1-0.6c-0.3,0.1-1.1,1.2-1.6,1.6c-0.5,0.4-0.8-0.5-1-1C59,44,60.7,43.9,61.3,43.6
		 M64,55.1c-0.4-4,2.1-5.2,5.1-4.9c-0.4-4,1.6-5.3,5.2-5.2c-0.5-4.7,2.7-5.2,5.1-5.1c-0.4-3.5,2.1-4.9,3.8-5.1h0.5
		c-0.2,16.1-5.6,28.5-12,37.8c-2.7-0.7-3.1-2.8-2.9-4.8c-3.9,0.5-5.5-2.4-5-5.1c-1.5,0.5-4.7-0.2-5.1-3.1
		C58.4,56.8,60.7,55.1,64,55.1 M51.9,55.1c0.6,0.1,1.1,0.2,0.5,0.8c-0.5,0.7-0.7,0.7-0.7,0.2S51.4,55,51.9,55.1 M47.7,55
		c0.5-0.1,0.3,0.5,0.2,1c-0.1,0.5-0.2,0.6-0.7-0.2C46.6,55.2,47.1,55.1,47.7,55 M47.1,58c0.8-0.5,1.5-1.8,1.7-2.7
		c0.2-1.2,0.5-1.7,1.1-1.7c0.6,0,0.9,0.5,1.1,1.7c0.2,0.9,0.8,2.2,1.7,2.7c0.5,0.3,2.3,0.3,1.9,1.4c-0.2,0.5-0.6,1.4-1,1
		c-0.5-0.4-1.3-1.5-1.6-1.6c-0.3-0.1-0.3,0.4-0.1,0.6c0.2,0.2,0.7,1,1,1.4c0.4,0.4,0.5,1.3-0.2,1.6c-0.7,0.3-1.4-0.1-1.4-0.5
		c0-0.6-0.3-2.2-0.6-2.2s-0.2,0.4-0.2,0.8c-0.1,1,0.5,1.7,0.5,2.2c-0.1,0.5-0.2,1-1,1c-0.8,0-0.9-0.5-1-1c-0.1-0.5,0.5-1.2,0.5-2.2
		c0-0.5,0-0.8-0.2-0.8s-0.6,1.6-0.6,2.2c0,0.4-0.7,0.8-1.4,0.5c-0.7-0.3-0.6-1.2-0.2-1.6c0.3-0.4,0.9-1.2,1.1-1.4
		c0.1-0.2,0.2-0.6-0.1-0.6c-0.3,0.1-1.1,1.2-1.6,1.6c-0.5,0.4-0.8-0.5-1-1C44.8,58.3,46.5,58.3,47.1,58 M45.8,73.1
		c-0.3-3,1.5-5,3.9-5c2.4,0,4.3,2,3.9,5c2.7-0.8,6.2,0.5,5.4,5.2c3.1-1,5.4,0.6,5.6,3.1c-6.8,7.1-13.2,11-15,12.1
		c-1.9-1.1-8.1-4.9-14.8-11.9c0-2.6,2.4-4.4,5.6-3.3C39.6,73.7,43.1,72.4,45.8,73.1 M40.8,59.6c-0.4,2.8-3.6,3.6-5.1,3.1
		c0.5,2.7-1,5.5-5,5.1c0.2,2-0.2,4.3-3.1,4.8c-6.4-9.3-11.8-21.8-12-37.8h0.8c1.7,0.2,4.2,1.6,3.8,5.1c2.4-0.2,5.6,0.4,5.1,5.1
		c3.5-0.2,5.6,1.2,5.2,5.2c3-0.2,5.5,0.9,5.1,4.9C38.9,55.1,41.2,56.8,40.8,59.6 M33.1,41.7c-0.1,0.5-0.2,0.6-0.7-0.1
		c-0.5-0.7-0.1-0.8,0.5-0.9C33.4,40.6,33.1,41.2,33.1,41.7 M37.1,40.7c0.6,0.1,1.1,0.2,0.5,0.9c-0.5,0.7-0.7,0.7-0.7,0.2
		C36.9,41.3,36.6,40.7,37.1,40.7 M36.1,41c0.2,0.9,0.8,2.2,1.7,2.7c0.5,0.3,2.3,0.3,1.9,1.3c-0.2,0.5-0.6,1.4-1,1
		c-0.5-0.4-1.3-1.5-1.6-1.6c-0.3-0.1-0.3,0.4-0.1,0.6c0.2,0.2,0.7,1,1,1.4c0.4,0.4,0.5,1.3-0.2,1.6c-0.7,0.3-1.4-0.1-1.4-0.5
		c0-0.6-0.3-2.2-0.6-2.2s-0.2,0.4-0.2,0.9c-0.1,0.9,0.5,1.7,0.4,2.2c-0.1,0.5-0.2,1-1,1c-0.8,0-0.9-0.5-1-1
		c-0.1-0.5,0.6-1.2,0.5-2.2c0-0.5,0-0.9-0.2-0.9c-0.2,0-0.6,1.6-0.6,2.2c0,0.4-0.7,0.8-1.4,0.5c-0.7-0.3-0.6-1.2-0.2-1.6
		c0.3-0.4,0.9-1.2,1-1.4c0.1-0.1,0.2-0.6-0.1-0.6c-0.3,0.1-1.1,1.2-1.6,1.6c-0.5,0.4-0.8-0.5-1-1c-0.4-1,1.4-1.1,1.9-1.3
		c0.9-0.5,1.5-1.8,1.7-2.7c0.2-1.2,0.5-1.7,1.1-1.7C35.7,39.3,35.9,39.8,36.1,41"/>
</g>
</svg>
