<?xml version="1.0" encoding="utf-8"?>
<!-- Generator: Adobe Illustrator 27.0.0, SVG Export Plug-In . SVG Version: 6.00 Build 0)  -->
<svg version="1.1" id="_圖層_1" xmlns="http://www.w3.org/2000/svg" xmlns:xlink="http://www.w3.org/1999/xlink" x="0px" y="0px"
	 viewBox="0 0 2502 787.4" style="enable-background:new 0 0 2502 787.4;" xml:space="preserve">
<style type="text/css">
	.st0{fill:#FFFFFF;stroke:#FFFFFF;stroke-miterlimit:10;}
	.st1{fill:#FFFFFF;}
	.st2{fill:#231815;}
</style>
<g>
	<polygon class="st0" points="674.7,203.5 674.7,98.6 704.3,98.6 704.3,137.6 740.9,137.6 740.9,98.6 770.6,98.6 770.6,203.5 
		740.9,203.5 740.9,163 704.3,163 704.3,203.5 	"/>
	<path class="st0" d="M852.6,176.5c0,3.9,1.1,6,4.2,6s3.6-0.7,5.2-1.6v20.3c-4,2.9-7.8,3.9-14.5,3.9c-11.2,0-17.3-5-20.6-13
		c-4.7,8.5-12.1,13.3-24.1,13.3s-24.9-8.9-24.9-23s12.8-26.5,38-26.5h8.5v-5.5c0-5.3-1.8-9.1-7.1-9.1s-7.4,3-7.8,9.8l-27.9-4.2
		c1.6-16.9,15-27.6,36.6-27.6s34.4,10.3,34.4,28.3L852.6,176.5L852.6,176.5L852.6,176.5z M824.3,170.5h-3.8
		c-10.5,0-14.1,3.2-14.1,8.5s2.7,6.9,7.8,6.9s10.1-2.5,10.1-10.1V170.5L824.3,170.5L824.3,170.5z"/>
	<path class="st0" d="M923.7,153.6c-3.4-1.2-5.4-2.1-10.1-2.1c-6.9,0-15.2,2.6-15.2,17.2v34.7h-29.2v-82.2h25l2.9,20.3
		c2.3-13.7,14.1-20.3,28.4-20.3L923.7,153.6L923.7,153.6L923.7,153.6z"/>
	<path class="st0" d="M927.3,121.2H958l9.6,33.1c3.5,11.9,5.4,20.1,5.4,20.1h0.4c0,0,1.8-8.2,5.6-20.1l10.9-33.1h28.4l-30.4,82.2
		h-31.5l-29.2-82.2H927.3L927.3,121.2z"/>
	<path class="st0" d="M1088.5,176.5c0,3.9,1.1,6,4.2,6s3.6-0.7,5.2-1.6v20.3c-4,2.9-7.8,3.9-14.5,3.9c-11.2,0-17.3-5-20.6-13
		c-4.7,8.5-12.1,13.3-24.1,13.3s-24.9-8.9-24.9-23s12.8-26.5,38-26.5h8.5v-5.5c0-5.3-1.8-9.1-7.1-9.1s-7.4,3-7.8,9.8l-27.9-4.2
		c1.6-16.9,15-27.6,36.6-27.6s34.4,10.3,34.4,28.3L1088.5,176.5L1088.5,176.5L1088.5,176.5z M1060.3,170.5h-3.8
		c-10.5,0-14.1,3.2-14.1,8.5s2.7,6.9,7.8,6.9s10.1-2.5,10.1-10.1V170.5L1060.3,170.5L1060.3,170.5z"/>
	<path class="st0" d="M1159.6,153.6c-3.4-1.2-5.4-2.1-10.1-2.1c-6.9,0-15.2,2.6-15.2,17.2v34.7h-29.2v-82.2h25l2.9,20.3
		c2.3-13.7,14.1-20.3,28.4-20.3L1159.6,153.6L1159.6,153.6L1159.6,153.6z"/>
	<path class="st0" d="M1223.1,93.5h29.3v109.9H1226l-2.7-14.2c-3.1,11-13,16.4-25.7,16.4c-19.6,0-33.5-14.9-33.5-41.6
		s13.4-44.7,36.9-44.7s19.2,4.8,22.1,12.6L1223.1,93.5L1223.1,93.5L1223.1,93.5z M1223.3,156.5c0-10.5-5.3-16.2-13.7-16.2
		s-15.7,6.3-15.7,22.6s5.8,20.6,15.4,20.6s14.1-5.5,14.1-16.7v-10.3L1223.3,156.5L1223.3,156.5z"/>
	<path class="st0" d="M1380,175.1c0,16.9-11.8,28.3-37.8,28.3h-48.9V98.7h47.4c22.6,0,34.7,10.1,34.7,27.4s-7.2,20.8-18.6,23.7
		C1371.8,152.8,1380,162.8,1380,175.1 M1322.7,142.2h11.4c7.6,0,12.3-2.8,12.3-10s-4.7-10-12.3-10h-11.4V142.2L1322.7,142.2
		L1322.7,142.2z M1322.7,179.5h15.4c7.4,0,11.6-3.2,11.6-9.3s-4.2-9.3-11.6-9.3h-15.4v18.5l0,0V179.5z"/>
	<path class="st0" d="M1437.8,188.1c-2.3,10.8-10.9,17.4-25.2,17.4s-25.9-9.3-25.9-28.7v-55.7h29.3v49.6c0,8.2,2.4,13.2,9.1,13.2
		s12.3-6.7,12.3-20.1v-42.7h29.3v82.2h-26.2L1437.8,188.1L1437.8,188.1L1437.8,188.1z"/>
	<path class="st0" d="M1496.6,175.1c1.7,6.8,6.9,10.3,13.2,10.3s8.9-1.8,8.9-5.4s-3.1-5.1-9.1-6.4l-11.2-2.3
		c-15.2-3.2-23.2-10.9-23.2-24.4c0-19.9,17.3-27.8,36-27.8s32.2,8.2,35.1,23.5l-26.6,3.9c-0.9-4.6-3.8-7.3-9.4-7.3s-7,2-7,5.2
		s2.3,4.8,6.7,5.5l11.2,1.9c18.5,3,26.2,12.8,26.2,26.7s-17.2,26.9-37.8,26.9s-31.6-6.8-36.3-21.3L1496.6,175.1L1496.6,175.1
		L1496.6,175.1z"/>
	<path class="st0" d="M1570.4,85.8c8.7,0,16.1,5.9,16.1,15.1s-7.4,15.1-16.1,15.1s-16.1-5.8-16.1-15.1S1561.7,85.8,1570.4,85.8
		 M1585,203.5h-29.2v-82.2h29.2V203.5L1585,203.5z"/>
	<path class="st0" d="M1626.7,137.1c4.3-12.2,14.1-17.8,26.6-17.8s24.4,7.4,24.4,26.3v57.8h-29.2v-46.8c0-8.4-2.6-13.5-10-13.5
		s-11.7,3.7-11.7,16.4v43.9h-29.2v-82.2h26.2l2.7,15.8L1626.7,137.1L1626.7,137.1z"/>
	<path class="st0" d="M1740.5,173.7l24.3,7.5c-4.7,17.6-19.6,24.4-36.2,24.4c-24.8,0-42.8-15.5-42.8-42.4s15.9-43.9,42.1-43.9
		s37.5,15.7,37.5,38.4c0,22.7,0,6.5-0.3,10.3h-51c0.5,10.1,5.6,15.6,14.3,15.6s10.3-2.6,12.3-10 M1737.6,153.5
		c0-7.1-2.5-13.3-10.7-13.3s-11.6,5.6-12.3,13.3H1737.6z"/>
	<path class="st0" d="M1792,175.1c1.7,6.8,6.9,10.3,13.2,10.3s8.9-1.8,8.9-5.4s-3.1-5.1-9.1-6.4l-11.2-2.3
		c-15.2-3.2-23.2-10.9-23.2-24.4c0-19.9,17.3-27.8,36-27.8s32.2,8.2,35.1,23.5l-26.6,3.9c-0.9-4.6-3.8-7.3-9.4-7.3s-7.1,2-7.1,5.2
		s2.4,4.8,6.7,5.5l11.2,1.9c18.5,3,26.2,12.8,26.2,26.7s-17.2,26.9-37.8,26.9s-31.6-6.8-36.3-21.3l23.3-9.1L1792,175.1L1792,175.1z"
		/>
	<path class="st0" d="M1869.5,175.1c1.7,6.8,6.9,10.3,13.2,10.3s8.9-1.8,8.9-5.4s-3.1-5.1-9.1-6.4l-11.2-2.3
		c-15.2-3.2-23.2-10.9-23.2-24.4c0-19.9,17.3-27.8,36-27.8s32.3,8.2,35.1,23.5l-26.6,3.9c-0.9-4.6-3.8-7.3-9.4-7.3s-7,2-7,5.2
		s2.3,4.8,6.7,5.5l11.2,1.9c18.5,3,26.2,12.8,26.2,26.7s-17.2,26.9-37.8,26.9s-31.6-6.8-36.3-21.3L1869.5,175.1L1869.5,175.1
		L1869.5,175.1z"/>
	<path class="st0" d="M2021,203.5c-3.5-2.8-4.7-6.8-6-11.7l-3.2-13c-1.8-7.5-4.9-8.9-11.8-8.9h-9.2v33.6h-29.5V98.7h45.6
		c23.9,0,40.3,9.1,40.3,33s-10.8,24.7-22.6,26.6c9.8,2,14.7,6.3,17.2,15.3l5,18c1.3,4.6,2.7,8.2,6.5,11.9H2021L2021,203.5
		L2021,203.5z M1990.7,146.3h11.4c10.3,0,14.8-4.1,14.8-11.6s-4.5-11.6-14.8-11.6h-11.4V146.3L1990.7,146.3L1990.7,146.3z"/>
	<path class="st0" d="M2106.4,173.7l24.3,7.5c-4.7,17.6-19.6,24.4-36.2,24.4c-24.8,0-42.9-15.5-42.9-42.3s16-43.9,42.2-43.9
		s37.5,15.7,37.5,38.4c0,22.7,0,6.5-0.4,10.3h-51c0.5,10.1,5.6,15.7,14.3,15.7s10.3-2.7,12.3-10 M2103.5,153.5
		c0-7.1-2.5-13.3-10.7-13.3s-11.6,5.7-12.3,13.3H2103.5z"/>
	<path class="st0" d="M2129,121.3h30.7l9.6,33.1c3.5,11.9,5.4,20.1,5.4,20.1h0.4c0,0,1.8-8.2,5.6-20.1l10.9-33.1h28.4l-30.4,82.2
		h-31.5l-29.2-82.2H2129z"/>
	<path class="st0" d="M2240.8,85.8c8.7,0,16.1,5.9,16.1,15.1s-7.4,15.1-16.1,15.1s-16.1-5.8-16.1-15.1S2232.1,85.8,2240.8,85.8
		 M2255.5,203.5h-29.2v-82.2h29.2V203.5L2255.5,203.5z"/>
	<path class="st0" d="M2319.3,173.7l24.3,7.5c-4.7,17.6-19.6,24.4-36.2,24.4c-24.8,0-42.9-15.5-42.9-42.3s16-43.9,42.2-43.9
		s37.4,15.7,37.4,38.4c0,22.7,0,6.5-0.3,10.3h-51c0.5,10.1,5.6,15.7,14.3,15.7s10.3-2.7,12.3-10 M2316.5,153.5
		c0-7.1-2.5-13.3-10.7-13.3s-11.6,5.7-12.3,13.3H2316.5z"/>
	<path class="st0" d="M2422.3,121.3l6,28.7c3,14.7,4.7,25.8,4.7,25.8h0.3c0,0,1.8-10.9,5.3-25.4l6.7-29h28.4l-22.6,82.2h-32.7
		l-5.1-24c-2.5-12.1-4.5-26.4-4.5-26.4h-0.4c0,0-2,14.3-4.6,26.4l-5.1,24h-32.5l-22.6-82.2h29.5l6.7,29c3.5,14.6,5.3,25.4,5.3,25.4
		h0.4c0,0,1.6-11,4.7-25.8l6-28.7L2422.3,121.3L2422.3,121.3L2422.3,121.3z"/>
	<path class="st0" d="M1845,616.6c3.6,0.7,7.3,1.1,10.9,1.1h11.9l4-4.6l6.3,4.6c0.9,0.7,1.4,1.4,1.4,1.8c0,0.9-1.1,1.9-3.4,3
		c3,4.2,6.3,7.7,10.1,10.6c3.4,2.7,7.6,5.2,12.5,7.4c4.3,2,9.5,3.8,15.4,5.5l-0.7,2.3c-1.9,0-3.2,0.3-3.9,1c-0.8,0.8-1.5,2.3-2,4.6
		c-4.6-2.3-8.8-4.7-12.5-7.2c-5.4-3.9-9.8-7.8-13.1-11.7c-2.6-2.7-5.3-6.5-8.1-11.4c-3.1,4.8-6.1,8.9-9.1,12.1
		c-4.7,5.1-10,9.4-15.8,13c-4.9,3.2-9.8,5.9-14.9,8.1l-1-1.9c3.7-1.7,7.6-4.2,11.7-7.4c5.4-4.3,10.1-8.9,14-13.8
		c3.4-4,6.5-8.4,9.3-13.3h-12.1c-3.1,0-6.2,0.2-9.3,0.6L1845,616.6L1845,616.6L1845,616.6z M1848.8,649.5c3.7,0.8,7.3,1.2,10.9,1.2
		h23.6l4.6-6l6.2,5.1c0.7,0.7,1,1.4,1,2c0,1-0.4,1.6-1.3,1.6h-18.2v17.7h13.3l5-6.4l6.5,5.4c0.7,0.7,1.1,1.4,1.1,2.2
		s-0.5,1.5-1.4,1.5h-24.5v21.6h21.6l5.3-6.8l6.9,5.8c0.7,0.7,1.1,1.4,1.1,2.2s-0.5,1.5-1.6,1.5h-61.3c-3.1,0-6.2,0.2-9.3,0.7
		l-1.6-4.5c3.6,0.7,7.3,1,10.9,1h21.2v-21.6h-14.2c-3.1,0-6.2,0.2-9.3,0.7l-1.7-4.6c3.6,0.8,7.3,1.1,10.9,1.1h14.2v-17.7h-9
		c-3.1,0-6.1,0.2-9.3,0.7l-1.7-4.6v0.2L1848.8,649.5z"/>
	<path class="st0" d="M1845,616.6c3.6,0.7,7.3,1.1,10.9,1.1h11.9l4-4.6l6.3,4.6c0.9,0.7,1.4,1.4,1.4,1.8c0,0.9-1.1,1.9-3.4,3
		c3,4.2,6.3,7.7,10.1,10.6c3.4,2.7,7.6,5.2,12.5,7.4c4.3,2,9.5,3.8,15.4,5.5l-0.7,2.3c-1.9,0-3.2,0.3-3.9,1c-0.8,0.8-1.5,2.3-2,4.6
		c-4.6-2.3-8.8-4.7-12.5-7.2c-5.4-3.9-9.8-7.8-13.1-11.7c-2.6-2.7-5.3-6.5-8.1-11.4c-3.1,4.8-6.1,8.9-9.1,12.1
		c-4.7,5.1-10,9.4-15.8,13c-4.9,3.2-9.8,5.9-14.9,8.1l-1-1.9c3.7-1.7,7.6-4.2,11.7-7.4c5.4-4.3,10.1-8.9,14-13.8
		c3.4-4,6.5-8.4,9.3-13.3h-12.1c-3.1,0-6.2,0.2-9.3,0.6L1845,616.6L1845,616.6L1845,616.6z M1848.8,649.5c3.7,0.8,7.3,1.2,10.9,1.2
		h23.6l4.6-6l6.2,5.1c0.7,0.7,1,1.4,1,2c0,1-0.4,1.6-1.3,1.6h-18.2v17.7h13.3l5-6.4l6.5,5.4c0.7,0.7,1.1,1.4,1.1,2.2
		s-0.5,1.5-1.4,1.5h-24.5v21.6h21.6l5.3-6.8l6.9,5.8c0.7,0.7,1.1,1.4,1.1,2.2s-0.5,1.5-1.6,1.5h-61.3c-3.1,0-6.2,0.2-9.3,0.7
		l-1.6-4.5c3.6,0.7,7.3,1,10.9,1h21.2v-21.6h-14.2c-3.1,0-6.2,0.2-9.3,0.7l-1.7-4.6c3.6,0.8,7.3,1.1,10.9,1.1h14.2v-17.7h-9
		c-3.1,0-6.1,0.2-9.3,0.7l-1.7-4.6v0.2L1848.8,649.5z"/>
	<path class="st0" d="M1926.5,619.5c3.7,0.8,7.3,1.1,10.9,1.1h9.7l4.6-5.7l5.9,5c0.7,0.6,1,1.2,1,1.8c0,1-0.4,1.6-1.4,1.6h-13.3
		v24.4h1.7l4.3-5.4l5.7,4.7c0.6,0.6,0.9,1.2,0.9,1.8c0,1-0.4,1.5-1.3,1.5h-11.3v21.2c1.2-0.5,2.4-1,3.5-1.5c3.4-1.6,6.4-3.2,8.8-4.8
		l0.2,2.2c-1.9,2.2-4.1,4.2-6.5,6.1c-2.5,2.1-5.8,4.4-9.9,6.8c-2.4,1.5-4.6,2.6-6.7,3.5l-1,2.6c-0.4,1.3-1,2-1.7,2
		c-0.6-0.2-1-0.7-1.2-1.8l-2.1-10.1c2.6-0.4,6-1.2,9.9-2.5v-23.7c-2.8,0-5.5,0.2-8.3,0.7l-1.6-4.6c3.3,0.7,6.6,1.1,9.9,1.2v-24.4
		c-3.1,0-6.2,0.3-9.3,0.8l-1.6-4.6h0.2L1926.5,619.5z M1951.1,631.7c3.6,0.8,7.3,1.2,10.9,1.2h12.5v-7.7c0-5.8-0.2-10.1-0.6-12.9
		l8.5,1.3c1.4,0,2.2,0.7,2.2,1.8s-0.5,1.8-1.4,2.1l-1.9,0.9V633h14.6l4.6-6.1l6.3,5.3c0.7,0.6,1,1.3,1,1.9c0,1-0.4,1.6-1.3,1.6
		h-24.8c1.7,8,3.6,14.8,5.4,20.1l0.2,0.7c2.2-2.5,3.9-4.6,5.2-6.5c2.1-3,3.8-5.9,5-8.6l6.9,5.4c0.9,0.7,1.4,1.5,1.4,2.2
		s-1.6,1.1-4.7,1.1c-2.8,2.8-7,5.9-12.6,9.5c2,5,4.3,9.4,6.9,13.3c3.1,4.6,6.5,8.2,10,10.8l-0.7,2.8c-1.2,0-2.3,0-3.2,0.3
		c-1,0.2-2.2,1.6-3.8,4.1c-3-3.5-5.5-7.7-7.6-12.8c-2.6-5.9-4.9-12.3-6.6-19.4c-0.9-3.5-1.7-7.6-2.4-12.3V692c0,3.2-1.3,5.9-3.9,8
		c-2.3,1.6-4.3,2.3-6.1,2.3c0-2.6-0.2-4.3-0.6-5.3c-0.5-0.9-2.9-2-6.9-3.2v-2.3l8.9,1.2c1.3,0,2-0.7,2-2.2v-22.1
		c-5.2,5.3-10.6,10.2-16.2,14.8l-0.4,2.9c-0.1,0.8-0.5,1.3-1.3,1.3s-1.3-0.6-1.6-1.7l-4.3-8.2c7.8-3.6,15.8-7.8,23.9-12.7v-29.2
		h-12.5c-3.1,0-6.2,0.2-9.3,0.8l-1.7-4.6l0,0L1951.1,631.7z M1959.4,642.7c3.4,2.6,6.1,5.1,8.2,7.6c2.1,2.4,3.1,4.4,3.1,6.2
		c0,3-1.1,4.6-3.3,4.6s-2.9-1.2-3.5-3.5c-1.2-4.4-3.2-8.9-6.2-13.7L1959.4,642.7L1959.4,642.7z M1987.6,615.6c3.3,2,5.9,3.7,7.7,5.1
		c1.7,1.6,2.5,3,2.5,4.4c0,2.8-1.2,4.2-3.6,4.2s-2.1-0.9-2.7-2.7c-1.2-3.4-3.1-6.5-5.6-9.6L1987.6,615.6L1987.6,615.6L1987.6,615.6z
		"/>
	<path class="st0" d="M1926.5,619.5c3.7,0.8,7.3,1.1,10.9,1.1h9.7l4.6-5.7l5.9,5c0.7,0.6,1,1.2,1,1.8c0,1-0.4,1.6-1.4,1.6h-13.3
		v24.4h1.7l4.3-5.4l5.7,4.7c0.6,0.6,0.9,1.2,0.9,1.8c0,1-0.4,1.5-1.3,1.5h-11.3v21.2c1.2-0.5,2.4-1,3.5-1.5c3.4-1.6,6.4-3.2,8.8-4.8
		l0.2,2.2c-1.9,2.2-4.1,4.2-6.5,6.1c-2.5,2.1-5.8,4.4-9.9,6.8c-2.4,1.5-4.6,2.6-6.7,3.5l-1,2.6c-0.4,1.3-1,2-1.7,2
		c-0.6-0.2-1-0.7-1.2-1.8l-2.1-10.1c2.6-0.4,6-1.2,9.9-2.5v-23.7c-2.8,0-5.5,0.2-8.3,0.7l-1.6-4.6c3.3,0.7,6.6,1.1,9.9,1.2v-24.4
		c-3.1,0-6.2,0.3-9.3,0.8l-1.6-4.6h0.2L1926.5,619.5z M1951.1,631.7c3.6,0.8,7.3,1.2,10.9,1.2h12.5v-7.7c0-5.8-0.2-10.1-0.6-12.9
		l8.5,1.3c1.4,0,2.2,0.7,2.2,1.8s-0.5,1.8-1.4,2.1l-1.9,0.9V633h14.6l4.6-6.1l6.3,5.3c0.7,0.6,1,1.3,1,1.9c0,1-0.4,1.6-1.3,1.6
		h-24.8c1.7,8,3.6,14.8,5.4,20.1l0.2,0.7c2.2-2.5,3.9-4.6,5.2-6.5c2.1-3,3.8-5.9,5-8.6l6.9,5.4c0.9,0.7,1.4,1.5,1.4,2.2
		s-1.6,1.1-4.7,1.1c-2.8,2.8-7,5.9-12.6,9.5c2,5,4.3,9.4,6.9,13.3c3.1,4.6,6.5,8.2,10,10.8l-0.7,2.8c-1.2,0-2.3,0-3.2,0.3
		c-1,0.2-2.2,1.6-3.8,4.1c-3-3.5-5.5-7.7-7.6-12.8c-2.6-5.9-4.9-12.3-6.6-19.4c-0.9-3.5-1.7-7.6-2.4-12.3V692c0,3.2-1.3,5.9-3.9,8
		c-2.3,1.6-4.3,2.3-6.1,2.3c0-2.6-0.2-4.3-0.6-5.3c-0.5-0.9-2.9-2-6.9-3.2v-2.3l8.9,1.2c1.3,0,2-0.7,2-2.2v-22.1
		c-5.2,5.3-10.6,10.2-16.2,14.8l-0.4,2.9c-0.1,0.8-0.5,1.3-1.3,1.3s-1.3-0.6-1.6-1.7l-4.3-8.2c7.8-3.6,15.8-7.8,23.9-12.7v-29.2
		h-12.5c-3.1,0-6.2,0.2-9.3,0.8l-1.7-4.6l0,0L1951.1,631.7z M1959.4,642.7c3.4,2.6,6.1,5.1,8.2,7.6c2.1,2.4,3.1,4.4,3.1,6.2
		c0,3-1.1,4.6-3.3,4.6s-2.9-1.2-3.5-3.5c-1.2-4.4-3.2-8.9-6.2-13.7L1959.4,642.7L1959.4,642.7z M1987.6,615.6c3.3,2,5.9,3.7,7.7,5.1
		c1.7,1.6,2.5,3,2.5,4.4c0,2.8-1.2,4.2-3.6,4.2s-2.1-0.9-2.7-2.7c-1.2-3.4-3.1-6.5-5.6-9.6L1987.6,615.6L1987.6,615.6L1987.6,615.6z
		"/>
	<path class="st0" d="M2031.6,623.2l4.2,3.4h15l2.7-3.4l5.3,3.7c0.6,0.6,1,1.1,1,1.7s-1.1,1.4-3.3,2.6c-0.2,2.3-0.4,4.5-0.6,6.5h1.3
		l3.7-4.2l4.5,3.9l0.7,1.4c0,0.8-0.4,1.2-1,1.2h-9.3c-0.3,3.4-0.6,6.3-0.9,8.8h1.3l3.7-4.2l4.6,3.8l0.7,1.5c0,1-0.3,1.6-0.9,1.6
		h-9.5c-0.3,2.6-0.6,4.2-0.8,5c-0.6,1.7-1.6,2.9-3,3.5c-1.3,1-3.2,1.4-5.6,1.4c-0.3-2.7-0.9-4.3-1.9-4.7l-4.4-1.8l0.4-1.8l6.5,1
		c0.9,0,1.6-0.2,2.2-0.6c0.6-0.4,1-1.1,1.2-2h-17.9c-0.2,1-0.5,2-0.8,3c-0.2,0.5-1.1,0.8-2.6,0.8s-2.7-0.6-2.7-1.8
		c1.3-4.7,2.4-9.2,3.3-13.3c-2.4,0-4.8,0-7.2,0.4l-1.4-3.4c3,0.5,6,0.7,9,0.7c1.1-5.2,2-10,2.6-14.5 M2029.9,612l6.8,1.7
		c1.2,0.3,1.9,0.9,1.9,1.8s-0.4,1.2-1.3,1.3l-2.4,1l-1,1.6h18.2l4.3-5.4l5.7,4.7c0.6,0.6,0.9,1.2,0.9,1.9c0,1-0.5,1.4-1.4,1.4h-29.8
		c-0.8,1-1.6,2-2.6,3c-1.6,1.7-3.8,3.8-6.7,6.1l-1.3-1.5c2.1-3,3.8-5.9,5.2-8.7c1.4-2.9,2.5-5.8,3.4-8.8 M2043.5,683.5l6.2,4.6
		c0.7,0.6,1.1,1.2,1.1,1.9s-1.3,1.4-4,1.5c-3.6,2-7.3,3.7-11.3,5.1c-2.3,0.8-5.9,1.8-10.8,3l-1-1.9c4.5-2.3,8-4.4,10.7-6.2
		C2037.7,689,2040.8,686.4,2043.5,683.5 M2071.9,657.6l7.5,3.7c1,0.4,1.4,0.9,1.4,1.6s-1.2,1.6-3.6,1.9c-4.2,3-9.4,6.6-15.7,10.5
		c3.1,0,6.1,0,9.1-0.2c6.3,0,11.9-0.2,16.7-0.4c-1.9-2.2-4.1-4.4-6.4-6.6l1.6-1.5c5.1,2.5,9.1,4.8,12,6.9c2.8,1.9,4.2,3.9,4.2,5.8
		c0,3-1.1,4.6-3.3,4.6s-2.1-0.7-3-2.3c-1-1.5-2.2-3-3.4-4.6c-4.6,0.7-9.6,1.4-15,1.9c-3.1,0.3-6.5,0.7-10.3,1.1v18.4
		c0,1.1-0.5,2-1.7,2.6c-1.1,0.6-2.1,0.9-3,0.9s-1.9-0.8-2-2.3l0.3-9.9v-9.1c-3,0.3-6.2,0.6-9.5,0.9c-6.4,0.6-12.2,1-17.6,1.3
		l-0.8,2.4c-0.4,1.2-0.9,1.8-1.5,1.8s-1-0.7-1.2-1.7l-2.1-9.3c6.2,0,13.8-0.2,22.7-0.3h9.7c3.2-3.1,5.6-5.6,7.3-7.5
		c3.1-3.7,5.6-7.1,7.6-10.3 M2049.7,648.9c0.2-2,0.5-4.9,0.8-8.8h-16.6c-0.6,2.8-1.2,5.8-2,8.8H2049.7z M2034.3,637.7h16.4
		c0.2-2.6,0.4-5.5,0.7-8.8h-15.5C2035.4,631.7,2034.9,634.7,2034.3,637.7 M2036.8,641.5c3.6,0,6.1,0.6,7.6,1.3
		c1.4,0.6,2.1,1.8,2.1,3.3s-0.7,2-2.1,2s-0.9-0.3-1.4-0.9c-1.8-1.5-4-2.8-6.5-4.1l0.3-1.5l0,0L2036.8,641.5z M2056.1,655.6l6.7,3.2
		c0.9,0.3,1.3,0.8,1.3,1.4c0,1-1.1,1.6-3.3,1.9c-2.3,1.5-5.2,3.2-8.6,5.1c2.2,1.1,3.3,2.4,3.3,3.7c0,2.6-1.1,3.8-3.3,3.8
		s-1.3-0.4-2-1.1c-3.2-2.8-7.4-5.7-12.6-8.7l1-1.6c4.2,0.8,7.7,1.7,10.5,2.6c1.2-1.5,2.2-2.7,3-3.7c1.7-2.2,3-4.5,4.1-6.5
		 M2038.2,630.5c3.4,0,5.8,0.5,7.2,1.1c1.4,0.7,2.1,1.8,2.1,3.4s-0.7,1.9-1.9,1.9s-0.9-0.3-1.4-0.9c-1.8-1.5-3.8-2.9-6.2-4.1
		l0.3-1.6v0.2H2038.2z M2071,612.4l7.8,1.8c1.4,0.3,2.1,1,2.1,1.9s-0.5,1.2-1.4,1.3l-2.9,1c-0.8,1.5-1.7,2.9-2.7,4.2h14.3l4.7-5.7
		l5.9,5c0.7,0.6,1,1.3,1,2c0,1-0.5,1.4-1.4,1.4h-6.2c-0.6,4.3-1.6,8-3,11.2c-1.4,3.5-3,6.4-4.8,8.5l-0.4,0.6c1.5,1,3.2,2,5.1,3
		c2.9,1.5,6.8,2.9,11.9,4.2l-0.3,2.2c-1.6,0-2.9,0.3-3.8,1c-1.2,0.6-2.2,2.1-3.1,4.8c-4-1.9-7.2-3.8-9.6-5.6
		c-1.9-1.6-3.7-3.2-5.2-4.9c-0.6,0.5-1.2,0.9-1.8,1.3c-3,2.1-7.5,4.1-13.5,6.1l-0.7-2c4.1-2,7.4-3.9,10-5.7c1.2-0.9,2.3-1.9,3.3-3
		c-2.3-3.5-4.2-7.2-5.7-11.2c-0.6-2-1.2-4.3-1.8-7c-1.6,1.7-3.5,3.6-5.8,5.7l-1.4-1.8c2.2-3.5,4.1-6.9,5.6-10.1
		c1.5-3.3,2.8-6.6,3.7-10.1 M2070.7,626.7c0.6,2.2,1.4,4.1,2.2,5.8c1.8,3.2,4,6.2,6.6,9l0.6,0.7c1.3-2,2.5-4.5,3.4-7.3
		c1.1-2.8,1.8-6,2.2-9.7h-13.8l-1.3,1.6L2070.7,626.7L2070.7,626.7z M2071.6,683.5c7.7,1.5,13.7,3.2,18.2,5.1
		c4.2,1.8,6.4,3.9,6.4,6.3s-1.2,3.9-3.6,3.9s-1.9-0.6-3.2-1.7c-4.8-3.8-11-7.7-18.7-11.6L2071.6,683.5L2071.6,683.5L2071.6,683.5z"
		/>
	<path class="st0" d="M2031.6,623.2l4.2,3.4h15l2.7-3.4l5.3,3.7c0.6,0.6,1,1.1,1,1.7s-1.1,1.4-3.3,2.6c-0.2,2.3-0.4,4.5-0.6,6.5h1.3
		l3.7-4.2l4.5,3.9l0.7,1.4c0,0.8-0.4,1.2-1,1.2h-9.3c-0.3,3.4-0.6,6.3-0.9,8.8h1.3l3.7-4.2l4.6,3.8l0.7,1.5c0,1-0.3,1.6-0.9,1.6
		h-9.5c-0.3,2.6-0.6,4.2-0.8,5c-0.6,1.7-1.6,2.9-3,3.5c-1.3,1-3.2,1.4-5.6,1.4c-0.3-2.7-0.9-4.3-1.9-4.7l-4.4-1.8l0.4-1.8l6.5,1
		c0.9,0,1.6-0.2,2.2-0.6c0.6-0.4,1-1.1,1.2-2h-17.9c-0.2,1-0.5,2-0.8,3c-0.2,0.5-1.1,0.8-2.6,0.8s-2.7-0.6-2.7-1.8
		c1.3-4.7,2.4-9.2,3.3-13.3c-2.4,0-4.8,0-7.2,0.4l-1.4-3.4c3,0.5,6,0.7,9,0.7c1.1-5.2,2-10,2.6-14.5 M2029.9,612l6.8,1.7
		c1.2,0.3,1.9,0.9,1.9,1.8s-0.4,1.2-1.3,1.3l-2.4,1l-1,1.6h18.2l4.3-5.4l5.7,4.7c0.6,0.6,0.9,1.2,0.9,1.9c0,1-0.5,1.4-1.4,1.4h-29.8
		c-0.8,1-1.6,2-2.6,3c-1.6,1.7-3.8,3.8-6.7,6.1l-1.3-1.5c2.1-3,3.8-5.9,5.2-8.7c1.4-2.9,2.5-5.8,3.4-8.8 M2043.5,683.5l6.2,4.6
		c0.7,0.6,1.1,1.2,1.1,1.9s-1.3,1.4-4,1.5c-3.6,2-7.3,3.7-11.3,5.1c-2.3,0.8-5.9,1.8-10.8,3l-1-1.9c4.5-2.3,8-4.4,10.7-6.2
		C2037.7,689,2040.8,686.4,2043.5,683.5 M2071.9,657.6l7.5,3.7c1,0.4,1.4,0.9,1.4,1.6s-1.2,1.6-3.6,1.9c-4.2,3-9.4,6.6-15.7,10.5
		c3.1,0,6.1,0,9.1-0.2c6.3,0,11.9-0.2,16.7-0.4c-1.9-2.2-4.1-4.4-6.4-6.6l1.6-1.5c5.1,2.5,9.1,4.8,12,6.9c2.8,1.9,4.2,3.9,4.2,5.8
		c0,3-1.1,4.6-3.3,4.6s-2.1-0.7-3-2.3c-1-1.5-2.2-3-3.4-4.6c-4.6,0.7-9.6,1.4-15,1.9c-3.1,0.3-6.5,0.7-10.3,1.1v18.4
		c0,1.1-0.5,2-1.7,2.6c-1.1,0.6-2.1,0.9-3,0.9s-1.9-0.8-2-2.3l0.3-9.9v-9.1c-3,0.3-6.2,0.6-9.5,0.9c-6.4,0.6-12.2,1-17.6,1.3
		l-0.8,2.4c-0.4,1.2-0.9,1.8-1.5,1.8s-1-0.7-1.2-1.7l-2.1-9.3c6.2,0,13.8-0.2,22.7-0.3h9.7c3.2-3.1,5.6-5.6,7.3-7.5
		c3.1-3.7,5.6-7.1,7.6-10.3 M2049.7,648.9c0.2-2,0.5-4.9,0.8-8.8h-16.6c-0.6,2.8-1.2,5.8-2,8.8H2049.7z M2034.3,637.7h16.4
		c0.2-2.6,0.4-5.5,0.7-8.8h-15.5C2035.4,631.7,2034.9,634.7,2034.3,637.7 M2036.8,641.5c3.6,0,6.1,0.6,7.6,1.3
		c1.4,0.6,2.1,1.8,2.1,3.3s-0.7,2-2.1,2s-0.9-0.3-1.4-0.9c-1.8-1.5-4-2.8-6.5-4.1l0.3-1.5l0,0L2036.8,641.5z M2056.1,655.6l6.7,3.2
		c0.9,0.3,1.3,0.8,1.3,1.4c0,1-1.1,1.6-3.3,1.9c-2.3,1.5-5.2,3.2-8.6,5.1c2.2,1.1,3.3,2.4,3.3,3.7c0,2.6-1.1,3.8-3.3,3.8
		s-1.3-0.4-2-1.1c-3.2-2.8-7.4-5.7-12.6-8.7l1-1.6c4.2,0.8,7.7,1.7,10.5,2.6c1.2-1.5,2.2-2.7,3-3.7c1.7-2.2,3-4.5,4.1-6.5
		 M2038.2,630.5c3.4,0,5.8,0.5,7.2,1.1c1.4,0.7,2.1,1.8,2.1,3.4s-0.7,1.9-1.9,1.9s-0.9-0.3-1.4-0.9c-1.8-1.5-3.8-2.9-6.2-4.1
		l0.3-1.6v0.2H2038.2z M2071,612.4l7.8,1.8c1.4,0.3,2.1,1,2.1,1.9s-0.5,1.2-1.4,1.3l-2.9,1c-0.8,1.5-1.7,2.9-2.7,4.2h14.3l4.7-5.7
		l5.9,5c0.7,0.6,1,1.3,1,2c0,1-0.5,1.4-1.4,1.4h-6.2c-0.6,4.3-1.6,8-3,11.2c-1.4,3.5-3,6.4-4.8,8.5l-0.4,0.6c1.5,1,3.2,2,5.1,3
		c2.9,1.5,6.8,2.9,11.9,4.2l-0.3,2.2c-1.6,0-2.9,0.3-3.8,1c-1.2,0.6-2.2,2.1-3.1,4.8c-4-1.9-7.2-3.8-9.6-5.6
		c-1.9-1.6-3.7-3.2-5.2-4.9c-0.6,0.5-1.2,0.9-1.8,1.3c-3,2.1-7.5,4.1-13.5,6.1l-0.7-2c4.1-2,7.4-3.9,10-5.7c1.2-0.9,2.3-1.9,3.3-3
		c-2.3-3.5-4.2-7.2-5.7-11.2c-0.6-2-1.2-4.3-1.8-7c-1.6,1.7-3.5,3.6-5.8,5.7l-1.4-1.8c2.2-3.5,4.1-6.9,5.6-10.1
		c1.5-3.3,2.8-6.6,3.7-10.1 M2070.7,626.7c0.6,2.2,1.4,4.1,2.2,5.8c1.8,3.2,4,6.2,6.6,9l0.6,0.7c1.3-2,2.5-4.5,3.4-7.3
		c1.1-2.8,1.8-6,2.2-9.7h-13.8l-1.3,1.6L2070.7,626.7L2070.7,626.7z M2071.6,683.5c7.7,1.5,13.7,3.2,18.2,5.1
		c4.2,1.8,6.4,3.9,6.4,6.3s-1.2,3.9-3.6,3.9s-1.9-0.6-3.2-1.7c-4.8-3.8-11-7.7-18.7-11.6L2071.6,683.5L2071.6,683.5L2071.6,683.5z"
		/>
	<path class="st0" d="M2120.9,613.9l5.6,3.4h11.7l3-3.4l4,3.8c0.7,0.6,1.1,1.1,1.1,1.5l-0.8,1l-1.7,0.9v20.4h0.8l3.2-3.5l4.3,3.4
		v-16.1c0-2.9-0.2-4.8-0.7-5.7l5.7,3.4h5.7v-5.3c0-1.3-0.1-2.7-0.4-4.2l6.1,1.2c1.1,0.2,1.6,0.7,1.6,1.5s-0.2,0.8-0.9,1.1l-1.1,0.7
		v4.9h4.5V618c0-1.3-0.1-2.7-0.3-4.2l6.1,1.1c1.1,0.2,1.6,0.7,1.6,1.5s-0.3,0.9-0.9,1.2l-1.1,0.7v4.6h5l3.3-3.4l4.5,3.8
		c0.8,0.6,1.2,1.1,1.2,1.5s-0.3,1-0.9,1.3l-1.8,1v12.5l0.3,7.1c0,0.8-0.3,1.4-1,1.8c-0.6,0.6-1.4,0.9-2.4,0.9
		c-1.8,0-2.6-0.6-2.6-1.5v-0.8h-26.1v0.4c0,0.9-0.4,1.5-1.2,1.8c-0.8,0.5-1.8,0.8-2.7,0.8s-1.9-0.6-2.1-1.8l0.2-3l-1.5,0.5
		c-1.6,2.1-3.7,4.4-6.3,6.9l1.9,1.6c0.5,0.4,0.8,1,0.8,1.6s-0.3,1-0.9,1.3l-1.7,1.1v34.3c0,2.1-0.4,3.8-1.3,5
		c-0.6,1.2-1.6,2.3-3.1,3.1c-1.5,0.9-2.8,1.4-3.9,1.4c0-1.9-0.2-3.2-0.6-3.9c-0.4-0.9-2.1-1.8-5.1-2.6l0.3-1.8l5.4,0.4
		c0.8,0,1.3-0.2,1.6-0.6c0.5-0.4,0.7-1.2,0.7-2.5v-10.9h-11.1v18.9c0,1.1-0.4,1.7-1.3,2c-0.8,0.6-1.7,1-2.8,1s-1.9-0.8-1.9-2.3
		v-44.2c0-3.1-0.2-5.1-0.6-6l6.6,3.8h10.4l3.6-3.4l1.4,1.3c0.9-2.6,1.6-4.9,2.1-6.9h-25.5c0,2-0.2,3.8-0.5,5.3
		c-0.4,1.8-0.9,3.1-1.4,4c-0.5,0.8-1.1,1.2-1.7,1.2c-2.2,0-3.4-1.2-3.4-3.8s0.4-1.7,1-2.7c0.8-1,1.5-2.2,2.2-3.8
		c0.7-2,1.3-4.3,1.9-7l2,0.6v3.5h2v-22.3c0-2.3,0-4.1-0.3-5.3 M2126.5,641.5h3.3V629c0-2,0-3.5-0.3-4.6l4.5,2.6h4.6v-7.1h-12v21.6
		H2126.5z M2127.2,664.7h11.1v-9.1h-11.1V664.7z M2127.2,677.2h11.1v-9.9h-11.1V677.2z M2134.6,641.5h4v-11.8h-4V641.5z
		 M2177.3,681.7l7.3,3.4c0.9,0.4,1.4,0.9,1.4,1.5c0,1-1.2,1.6-3.7,1.9c-1.5,2.2-3.4,4.7-5.8,7.5h7.4l4.3-5.3l5.7,4.6
		c0.6,0.6,1,1.2,1,1.8c0,1-0.5,1.5-1.4,1.5h-34.3c-3.1,0-6.3,0.2-9.3,0.6l-1.7-4.6c3.7,0.8,7.3,1.2,11,1.2h14.2
		c0.9-2.7,1.5-4.8,2-6.5c0.7-2.7,1.3-5.3,1.8-7.8 M2148.9,654.1c3.6,0.8,7.3,1.2,11,1.2h23.3l4.4-5.3l5.7,4.6
		c0.6,0.7,0.9,1.2,0.9,1.8c0,1-0.4,1.5-1.3,1.5h-33.1c-3.1,0-6.2,0.2-9.3,0.7l-1.7-4.6h0.1L2148.9,654.1z M2153.6,660.2l6.7,3.8
		h20.3l3.4-3.8l4.5,4c0.8,0.6,1.3,1.1,1.3,1.7s-0.3,0.9-0.9,1.3l-1.9,1v3.8l0.3,7.5c0,0.7-0.3,1.4-1,1.8c-0.6,0.6-1.4,0.9-2.4,0.9
		c-2,0-3-0.6-3-1.9v-1.2h-20.7v0.4c0,1-0.4,1.8-1.3,2.2c-0.8,0.6-1.7,0.9-2.7,0.9s-1.9-0.8-2-2.2v-14c0-3-0.2-5-0.6-6 M2157.9,633.5
		h5v-8h-5V633.5z M2157.9,644.5h5v-8.2h-5V644.5z M2160.9,682.5c2.3,1.8,4.2,3.4,5.4,4.7c1.3,1.4,1.9,2.7,1.9,4
		c0,2.7-1.2,4.2-3.6,4.2s-1.3-0.8-1.7-2.5c-0.8-3.1-2.1-6-3.7-8.8L2160.9,682.5L2160.9,682.5L2160.9,682.5z M2160.2,676.5h20.7v-9.8
		h-20.7V676.5z M2168.3,633.5h4.6v-8h-4.6V633.5z M2168.3,644.5h4.6v-8.2h-4.6V644.5z M2178.3,633.5h5.7v-8h-5.7V633.5z
		 M2178.3,644.5h5.7v-8.2h-5.7V644.5z"/>
	<path class="st0" d="M2120.9,613.9l5.6,3.4h11.7l3-3.4l4,3.8c0.7,0.6,1.1,1.1,1.1,1.5l-0.8,1l-1.7,0.9v20.4h0.8l3.2-3.5l4.3,3.4
		v-16.1c0-2.9-0.2-4.8-0.7-5.7l5.7,3.4h5.7v-5.3c0-1.3-0.1-2.7-0.4-4.2l6.1,1.2c1.1,0.2,1.6,0.7,1.6,1.5s-0.2,0.8-0.9,1.1l-1.1,0.7
		v4.9h4.5V618c0-1.3-0.1-2.7-0.3-4.2l6.1,1.1c1.1,0.2,1.6,0.7,1.6,1.5s-0.3,0.9-0.9,1.2l-1.1,0.7v4.6h5l3.3-3.4l4.5,3.8
		c0.8,0.6,1.2,1.1,1.2,1.5s-0.3,1-0.9,1.3l-1.8,1v12.5l0.3,7.1c0,0.8-0.3,1.4-1,1.8c-0.6,0.6-1.4,0.9-2.4,0.9
		c-1.8,0-2.6-0.6-2.6-1.5v-0.8h-26.1v0.4c0,0.9-0.4,1.5-1.2,1.8c-0.8,0.5-1.8,0.8-2.7,0.8s-1.9-0.6-2.1-1.8l0.2-3l-1.5,0.5
		c-1.6,2.1-3.7,4.4-6.3,6.9l1.9,1.6c0.5,0.4,0.8,1,0.8,1.6s-0.3,1-0.9,1.3l-1.7,1.1v34.3c0,2.1-0.4,3.8-1.3,5
		c-0.6,1.2-1.6,2.3-3.1,3.1c-1.5,0.9-2.8,1.4-3.9,1.4c0-1.9-0.2-3.2-0.6-3.9c-0.4-0.9-2.1-1.8-5.1-2.6l0.3-1.8l5.4,0.4
		c0.8,0,1.3-0.2,1.6-0.6c0.5-0.4,0.7-1.2,0.7-2.5v-10.9h-11.1v18.9c0,1.1-0.4,1.7-1.3,2c-0.8,0.6-1.7,1-2.8,1s-1.9-0.8-1.9-2.3
		v-44.2c0-3.1-0.2-5.1-0.6-6l6.6,3.8h10.4l3.6-3.4l1.4,1.3c0.9-2.6,1.6-4.9,2.1-6.9h-25.5c0,2-0.2,3.8-0.5,5.3
		c-0.4,1.8-0.9,3.1-1.4,4c-0.5,0.8-1.1,1.2-1.7,1.2c-2.2,0-3.4-1.2-3.4-3.8s0.4-1.7,1-2.7c0.8-1,1.5-2.2,2.2-3.8
		c0.7-2,1.3-4.3,1.9-7l2,0.6v3.5h2v-22.3c0-2.3,0-4.1-0.3-5.3 M2126.5,641.5h3.3V629c0-2,0-3.5-0.3-4.6l4.5,2.6h4.6v-7.1h-12v21.6
		H2126.5z M2127.2,664.7h11.1v-9.1h-11.1V664.7z M2127.2,677.2h11.1v-9.9h-11.1V677.2z M2134.6,641.5h4v-11.8h-4V641.5z
		 M2177.3,681.7l7.3,3.4c0.9,0.4,1.4,0.9,1.4,1.5c0,1-1.2,1.6-3.7,1.9c-1.5,2.2-3.4,4.7-5.8,7.5h7.4l4.3-5.3l5.7,4.6
		c0.6,0.6,1,1.2,1,1.8c0,1-0.5,1.5-1.4,1.5h-34.3c-3.1,0-6.3,0.2-9.3,0.6l-1.7-4.6c3.7,0.8,7.3,1.2,11,1.2h14.2
		c0.9-2.7,1.5-4.8,2-6.5c0.7-2.7,1.3-5.3,1.8-7.8 M2148.9,654.1c3.6,0.8,7.3,1.2,11,1.2h23.3l4.4-5.3l5.7,4.6
		c0.6,0.7,0.9,1.2,0.9,1.8c0,1-0.4,1.5-1.3,1.5h-33.1c-3.1,0-6.2,0.2-9.3,0.7l-1.7-4.6h0.1L2148.9,654.1z M2153.6,660.2l6.7,3.8
		h20.3l3.4-3.8l4.5,4c0.8,0.6,1.3,1.1,1.3,1.7s-0.3,0.9-0.9,1.3l-1.9,1v3.8l0.3,7.5c0,0.7-0.3,1.4-1,1.8c-0.6,0.6-1.4,0.9-2.4,0.9
		c-2,0-3-0.6-3-1.9v-1.2h-20.7v0.4c0,1-0.4,1.8-1.3,2.2c-0.8,0.6-1.7,0.9-2.7,0.9s-1.9-0.8-2-2.2v-14c0-3-0.2-5-0.6-6 M2157.9,633.5
		h5v-8h-5V633.5z M2157.9,644.5h5v-8.3h-5V644.5z M2160.9,682.5c2.3,1.8,4.2,3.4,5.4,4.7c1.3,1.4,1.9,2.7,1.9,4
		c0,2.7-1.2,4.2-3.6,4.2s-1.3-0.8-1.7-2.5c-0.8-3.1-2.1-6-3.7-8.8L2160.9,682.5L2160.9,682.5L2160.9,682.5z M2160.2,676.5h20.7v-9.8
		h-20.7V676.5z M2168.3,633.5h4.6v-8h-4.6V633.5z M2168.3,644.5h4.6v-8.3h-4.6V644.5z M2178.3,633.5h5.7v-8h-5.7V633.5z
		 M2178.3,644.5h5.7v-8.3h-5.7V644.5z"/>
	<path class="st0" d="M2212.7,627.9l7.6,4.6h23.3v-7.6c0-6.2-0.3-10.7-1-13.7l8.9,1.5c1.5,0,2.3,0.8,2.3,2s-0.5,1.9-1.4,2.1
		l-1.9,0.9v14.9h23.3l3.9-4.6l5.5,4.6c1,0.7,1.4,1.3,1.4,1.9s-0.3,1.4-1,1.7l-2.2,1.3v23.7l0.3,9.1c0,0.8-0.4,1.5-1.2,2
		c-0.7,0.7-1.6,1.1-2.8,1.1c-2.2,0-3.3-0.6-3.3-2V668h-24v32.8c0,0.7-0.3,1.2-0.9,1.4c-0.9,0.6-2.3,0.8-4,0.8s-2.2-0.6-2.3-1.8
		l0.3-17.2v-16h-23.3v2c0,1.2-0.5,2-1.5,2.3c-1,0.7-2.1,1.1-3.3,1.1s-2.2-0.9-2.4-2.7l0.3-9.8v-25.6c0-3.7-0.2-6.1-0.6-7.2
		 M2220.3,665.2h23.3V635h-23.3V665.2z M2250.5,665.2h24V635h-24V665.2z"/>
	<path class="st0" d="M2212.7,627.9l7.6,4.6h23.3v-7.6c0-6.2-0.3-10.7-1-13.7l8.9,1.5c1.5,0,2.3,0.8,2.3,2s-0.5,1.9-1.4,2.1
		l-1.9,0.9v14.9h23.3l3.9-4.6l5.5,4.6c1,0.7,1.4,1.3,1.4,1.9s-0.3,1.4-1,1.7l-2.2,1.3v23.7l0.3,9.1c0,0.8-0.4,1.5-1.2,2
		c-0.7,0.7-1.6,1.1-2.8,1.1c-2.2,0-3.3-0.6-3.3-2V668h-24v32.8c0,0.7-0.3,1.2-0.9,1.4c-0.9,0.6-2.3,0.8-4,0.8s-2.2-0.6-2.3-1.8
		l0.3-17.2v-16h-23.3v2c0,1.2-0.5,2-1.5,2.3c-1,0.7-2.1,1.1-3.3,1.1s-2.2-0.9-2.4-2.7l0.3-9.8v-25.6c0-3.7-0.2-6.1-0.6-7.2
		 M2220.3,665.2h23.3V635h-23.3V665.2z M2250.5,665.2h24V635h-24V665.2z"/>
	<path class="st0" d="M2337.3,611.9l8.4,1.2c1.6,0.3,2.5,0.9,2.5,1.8c0,1.4-1.2,2.5-3.6,3.4v11h22.8l5.4-6.8l6.8,5.8
		c0.7,0.7,1.1,1.4,1.1,2.2s-0.6,1.6-1.6,1.6h-17.2c-1.3,9.6-3.4,17.9-6.5,24.8c-2.6,6.7-5.6,12.1-9,16.4c3.4,3,7.3,5.8,11.7,8.5
		c5.3,3.1,12.6,6.1,21.9,8.8l-0.4,2.3c-1.8,0-3.3,0.4-4.4,1.2c-1.4,0.5-2.6,2.3-3.6,5.3c-7.9-3.5-14.3-7-19-10.6
		c-4.2-3.1-7.8-6.5-11.1-10c-3.5,3.4-7.4,6.6-11.9,9.6c-6.4,4.3-16,8.5-28.7,12.6l-1-2c10-4.3,18-8.4,24-12.2
		c5.1-3.5,9.7-7.7,13.9-12.7l-0.6-0.8c-4.9-6.7-8.7-13.9-11.6-21.7c-1.8-5.2-3.4-11.7-4.6-19.5h-9.4c-3.2,0-6.3,0.3-9.4,0.8
		l-1.6-4.6c3.6,0.7,7.3,1.1,11,1.1h25.8V618c0-1,0-3-0.2-6 M2323.3,632c1.4,5.9,3,11.2,5,15.8c3.2,6.9,7.2,13.3,12,19.2
		c0.5,0.6,1,1.2,1.5,1.8c2.7-4,5.1-8.8,7.4-14.3c2.7-6.4,4.5-13.9,5.4-22.5h-31.4H2323.3z"/>
	<path class="st0" d="M2337.3,611.9l8.4,1.2c1.6,0.3,2.5,0.9,2.5,1.8c0,1.4-1.2,2.5-3.6,3.4v11h22.8l5.4-6.8l6.8,5.8
		c0.7,0.7,1.1,1.4,1.1,2.2s-0.6,1.6-1.6,1.6h-17.2c-1.3,9.6-3.4,17.9-6.5,24.8c-2.6,6.7-5.6,12.1-9,16.4c3.4,3,7.3,5.8,11.7,8.5
		c5.3,3.1,12.6,6.1,21.9,8.8l-0.4,2.3c-1.8,0-3.3,0.4-4.4,1.2c-1.4,0.5-2.6,2.3-3.6,5.3c-7.9-3.5-14.3-7-19-10.6
		c-4.2-3.1-7.8-6.5-11.1-10c-3.5,3.4-7.4,6.6-11.9,9.6c-6.4,4.3-16,8.5-28.7,12.6l-1-2c10-4.3,18-8.4,24-12.2
		c5.1-3.5,9.7-7.7,13.9-12.7l-0.6-0.8c-4.9-6.7-8.7-13.9-11.6-21.7c-1.8-5.2-3.4-11.7-4.6-19.5h-9.4c-3.2,0-6.3,0.3-9.4,0.8
		l-1.6-4.6c3.6,0.7,7.3,1.1,11,1.1h25.8V618c0-1,0-3-0.2-6 M2323.3,632c1.4,5.9,3,11.2,5,15.8c3.2,6.9,7.2,13.3,12,19.2
		c0.5,0.6,1,1.2,1.5,1.8c2.7-4,5.1-8.8,7.4-14.3c2.7-6.4,4.5-13.9,5.4-22.5h-31.4H2323.3z"/>
	<path class="st0" d="M2398.2,612.6l8.2,1.2c1.4,0.3,2.1,0.9,2.1,1.9s-1,1.4-3,2.2v22.8h6.6v-22c0-1,0-2.9-0.3-5.7l7.6,1.3
		c1.6,0.2,2.3,0.8,2.3,1.8s-1.1,1.9-3.3,2.6v22h1l4-5l5.4,4.4c0.6,0.6,0.9,1.2,0.9,1.7c0,1-0.3,1.6-1,1.6h-23.2
		c0,5.7-0.3,11.5-0.9,17.5h7.8l3.7-4.2l5,4.4c0.9,0.6,1.4,1.1,1.4,1.6s-0.3,1.2-0.9,1.5l-2.1,1.3v21.6l0.4,8.4
		c0,0.7-0.4,1.3-1.2,1.8c-0.6,0.6-1.4,0.9-2.5,0.9c-2.1,0-3.1-0.6-3.1-2v-32.6h-8.6c0,0.6-0.1,1.3-0.2,1.9c-0.7,6-1.7,11.9-3,17.7
		c-1.3,5.4-3.2,11-5.8,16.8l-1.6-1.4c1.5-5.6,2.6-11,3.2-16c0.7-5,1.2-10.2,1.5-15.8c0.4-7.1,0.6-15.3,0.6-24.8v-19.3
		c0-3.1-0.3-6.4-0.9-9.9 M2437.9,622.1v19.7h22.4l3.4-4.6l6.5,5.3c0.7,0.6,1.1,1.3,1.1,2s-1.2,1.4-3.7,2.6c-1.6,8.2-3.3,14.7-5,19.6
		c-1.4,4.5-3.1,8.5-5.1,11.8l-0.2,0.5c1.4,1.8,3,3.4,4.8,5.1c2.9,2.5,6.7,4.8,11.6,7.1l-0.3,2.3c-1.7,0-3,0.3-4.1,1.1
		c-1.2,0.5-2.3,2.2-3.2,5c-3.8-2.9-6.9-5.8-9.3-8.8c-1.4-1.8-2.7-3.7-3.9-5.7c-0.9,1.1-1.9,2.2-3,3.2c-2.8,2.6-5.7,4.9-8.9,6.8
		c-2.8,2-6.5,4.2-11.3,6.5l-1.4-2.3c3.7-2.3,6.8-4.5,9.3-6.5c3-2.2,5.6-4.8,7.9-7.7c1.6-1.8,3-3.7,4.2-5.5l-0.6-1.2
		c-2.3-5.5-4.2-11.4-5.6-17.9c-0.8-4.2-1.6-9.4-2.2-15.7h-3.7c0,14.2-1.6,25.8-4.9,34.9c-2.8,8.1-6.7,15.1-11.8,20.9l-1.3-1.5
		c3.1-4.8,5.7-10.7,7.7-17.8c2.4-8.2,3.5-20.4,3.5-36.4v-22.5c0-3-0.1-5.4-0.3-7.2l6.5,4.6h22.8l5-6.5l6.5,5.6
		c0.7,0.7,1.1,1.4,1.1,2.1c0,1-0.5,1.4-1.4,1.4h-33.5L2437.9,622.1z M2443.7,644.6c0.7,4.6,1.6,8.7,2.5,12.3
		c1.8,5.6,3.8,10.7,6.4,15.4l0.4,0.8c1.6-3.7,3-7.6,4.1-12.1c1.1-4.2,2.2-9.6,3.1-16.5h-16.6L2443.7,644.6L2443.7,644.6z"/>
	<path class="st0" d="M2398.2,612.6l8.2,1.2c1.4,0.3,2.1,0.9,2.1,1.9s-1,1.4-3,2.2v22.8h6.6v-22c0-1,0-2.9-0.3-5.7l7.6,1.3
		c1.6,0.2,2.3,0.8,2.3,1.8s-1.1,1.9-3.3,2.6v22h1l4-5l5.4,4.4c0.6,0.6,0.9,1.2,0.9,1.7c0,1-0.3,1.6-1,1.6h-23.2
		c0,5.7-0.3,11.5-0.9,17.5h7.8l3.7-4.2l5,4.4c0.9,0.6,1.4,1.1,1.4,1.6s-0.3,1.2-0.9,1.5l-2.1,1.3v21.6l0.4,8.4
		c0,0.7-0.4,1.3-1.2,1.8c-0.6,0.6-1.4,0.9-2.5,0.9c-2.1,0-3.1-0.6-3.1-2v-32.6h-8.6c0,0.6-0.1,1.3-0.2,1.9c-0.7,6-1.7,11.9-3,17.7
		c-1.3,5.4-3.2,11-5.8,16.8l-1.6-1.4c1.5-5.6,2.6-11,3.2-16c0.7-5,1.2-10.2,1.5-15.8c0.4-7.1,0.6-15.3,0.6-24.8v-19.3
		c0-3.1-0.3-6.4-0.9-9.9 M2437.9,622.1v19.7h22.4l3.4-4.6l6.5,5.3c0.7,0.6,1.1,1.3,1.1,2s-1.2,1.4-3.7,2.6c-1.6,8.2-3.3,14.7-5,19.6
		c-1.4,4.5-3.1,8.5-5.1,11.8l-0.2,0.5c1.4,1.8,3,3.4,4.8,5.1c2.9,2.5,6.7,4.8,11.6,7.1l-0.3,2.3c-1.7,0-3,0.3-4.1,1.1
		c-1.2,0.5-2.3,2.2-3.2,5c-3.8-2.9-6.9-5.8-9.3-8.8c-1.4-1.8-2.7-3.7-3.9-5.7c-0.9,1.1-1.9,2.2-3,3.2c-2.8,2.6-5.7,4.9-8.9,6.8
		c-2.8,2-6.5,4.2-11.3,6.5l-1.4-2.3c3.7-2.3,6.8-4.5,9.3-6.5c3-2.2,5.6-4.8,7.9-7.7c1.6-1.8,3-3.7,4.2-5.5l-0.6-1.2
		c-2.3-5.5-4.2-11.4-5.6-17.9c-0.8-4.2-1.6-9.4-2.2-15.7h-3.7c0,14.2-1.6,25.8-4.9,34.9c-2.8,8.1-6.7,15.1-11.8,20.9l-1.3-1.5
		c3.1-4.8,5.7-10.7,7.7-17.8c2.4-8.2,3.5-20.4,3.5-36.4v-22.5c0-3-0.1-5.4-0.3-7.2l6.5,4.6h22.8l5-6.5l6.5,5.6
		c0.7,0.7,1.1,1.4,1.1,2.1c0,1-0.5,1.4-1.4,1.4h-33.5L2437.9,622.1z M2443.7,644.6c0.7,4.6,1.6,8.7,2.5,12.3
		c1.8,5.6,3.8,10.7,6.4,15.4l0.4,0.8c1.6-3.7,3-7.6,4.1-12.1c1.1-4.2,2.2-9.6,3.1-16.5h-16.6L2443.7,644.6L2443.7,644.6z"/>
	<path class="st0" d="M680,294.2l23.3,12.8h29.9l10.2-14.1l17.7,14.8c2.3,1.7,3.4,3.7,3.4,6s-1.1,3.1-3.2,4.8l-6.8,5.3v60.8
		c13.7-12.9,26-29,37-48c11.4-19.7,21.7-44.9,30.8-75.6l26.7,6.2c4.4,1.1,6.5,3.3,6.5,6.6s-4.1,5.5-12.2,7.6l-0.9,2.3
		c7.8,11.2,15.7,21,23.6,29.5c9.3,10.8,19.2,19.7,29.9,27c11.5,7.9,25.6,14.8,42.1,20.7l-2.3,9.2c-4,0-7.3,0.3-10,1
		c-2.9,0.9-6.6,6.9-11.1,18.1c-10.5-6.5-21.4-16.1-33-28.6c-11.6-11.8-22-26.4-31.3-43.7c-4.2-6.2-8.4-13.6-12.5-22.4
		c-9.1,19.7-19.9,38-32.4,54.9c-12.7,15.8-28.9,30.8-48.6,45l-2.3-4v92.7c0,3.5-1.6,6.1-4.8,7.9c-2.7,1.5-5.5,2.3-8.5,2.3
		c-5.1,0-7.7-2.2-7.7-6.6V470h-30.2v23.4c0,2.8-1.7,5-5.1,6.2c-3.2,0.9-6.7,1.3-10.5,1.3s-6.5-2.5-6.5-7.5l1.1-51.6V314.9
		C682.3,306.6,681.5,299.7,680,294.2 M703.4,461.4h30.1v-145h-30.1V461.4z M770,431.6l24.5,14.1h81.2l13.3-15.4l16.6,15.7
		c3,2.2,4.5,4.3,4.5,6.3s-1,3.8-3.1,5l-6.8,3.9v63.1l1.1,28.3c0,2.6-1.4,5-4,6.9c-2.1,2.1-4.8,3.3-8.3,3.3c-7.3,0-11.1-2.1-11.1-6.6
		v-15.4h-83.5v11.8c0,4-1.7,6.6-5.1,8c-3.3,2.4-6.8,3.6-10.6,3.6s-7.6-3.1-7.9-9.2l1.1-31.9v-69.4c0-11.3-0.6-18.7-2-22
		 M781.3,380.5c12.1,2.6,24.4,3.9,36.7,3.9h35.5l15.4-20.7l21.1,17.8c2.2,2.2,3.4,4.4,3.4,6.6c0,3.5-1.5,5.2-4.3,5.2H818
		c-10.5,0-20.8,0.9-31.3,2.6L781.3,380.5L781.3,380.5L781.3,380.5z M794.6,532H878V455h-83.4V532z"/>
	<path class="st0" d="M680,294.4l23.4,12.8h29.9l10.2-14.1l17.7,14.8c2.3,1.7,3.4,3.7,3.4,5.9s-1.1,3.1-3.1,4.9l-6.9,5.3v60.8
		c13.7-12.9,26-28.9,37-48c11.4-19.7,21.6-44.9,30.8-75.6l26.7,6.3c4.4,1.1,6.6,3.3,6.6,6.6s-4.1,5.5-12.3,7.6l-0.9,2.2
		c7.8,11.2,15.7,21,23.6,29.6c9.3,10.8,19.2,19.7,29.9,27c11.5,7.9,25.6,14.8,42.1,20.7l-2.2,9.2c-4,0-7.3,0.3-10,1
		c-2.8,0.9-6.6,6.9-11.1,18.1c-10.5-6.6-21.4-16.1-33-28.6c-11.6-11.8-22-26.4-31.3-43.7c-4.2-6.1-8.4-13.7-12.6-22.4
		c-9.1,19.7-19.9,38-32.4,54.9c-12.7,15.8-28.9,30.8-48.6,45l-2.3-4v92.7c0,3.5-1.6,6.2-4.8,7.9c-2.6,1.5-5.5,2.3-8.5,2.3
		c-5.2,0-7.7-2.2-7.7-6.6v-16.8h-30.2v23.3c0,2.8-1.7,5-5.1,6.3c-3.2,0.8-6.7,1.3-10.5,1.3s-6.5-2.5-6.5-7.5l1.1-51.6V315.1
		C682.4,306.8,681.6,299.9,680,294.4 M703.4,461.4h30.1v-145h-30.1V461.4z M770,431.6l24.5,14.1h81.2l13.4-15.4l16.5,15.7
		c3,2.2,4.5,4.3,4.5,6.2s-1,3.8-3.1,5l-6.8,3.9v63.1l1.1,28.3c0,2.6-1.3,5-4,6.9c-2.1,2.1-4.8,3.3-8.2,3.3c-7.4,0-11.1-2.2-11.1-6.6
		v-15.4h-83.5v11.8c0,3.9-1.7,6.6-5.1,7.9c-3.3,2.4-6.7,3.6-10.6,3.6s-7.6-3-8-9.2L772,523v-69.4C772,442.1,771.4,434.7,770,431.6
		 M781.3,380.5c12.1,2.7,24.4,3.9,36.7,3.9h35.6l15.3-20.7l21.1,17.8c2.2,2.2,3.4,4.3,3.4,6.6c0,3.5-1.4,5.2-4.3,5.2H818
		c-10.4,0-20.8,0.9-31.3,2.6L781.3,380.5L781.3,380.5L781.3,380.5z M794.6,532H878V455h-83.4V532z"/>
	<path class="st0" d="M1036.1,261.4l26.8,10.1c3.8,1.5,5.7,4.1,5.7,7.6s-4.1,5-12.3,6.6c-9.7,27-19.2,49.7-28.5,68.3l11.1,5
		c3.4,1.3,5.2,3,5.2,4.9s-1.5,3.9-4.6,5l-4.6,3v180.9c0,4.5-1.9,7.5-5.7,9.2c-3,1.5-6.3,2.3-9.7,2.3c-5,0-7.6-3-8-9.2
		c0-6.3,0.4-17.8,1.1-34.4V381.8c-7.6,12.5-17.2,26.3-28.8,41.4l-5.7-3.9c14.5-26.3,25.5-50.2,33.1-71.6
		c8.9-24.6,17.2-53.3,24.9-86.1 M1058.3,312.5c12.3,2.6,24.6,3.9,36.8,3.9h11.1v-12.8c0-6.6-0.6-20-1.9-40.1l25.4,4.2
		c5.4,0.9,8,3,8,6.2s-3.3,5.8-10,8.9v33.5h26.6v-11.8c0-18.4-1-32.1-3.1-41l27.5,4.6c4.8,0.5,7.2,2.4,7.2,5.9s-1.5,5.4-4.6,6.3
		l-5.4,2.6v33.5h23.4l12.3-14.1l16.5,14.8c3.1,2,4.6,3.8,4.6,5.6s-1.1,3.8-3.1,4.9l-6.8,4V355l1.1,28.3c0,2.4-1.4,4.3-4,5.9
		c-2.1,1.9-4.8,3-8.2,3c-6.9,0-10.3-2.1-10.3-6.3v-6.5h-25.3v49.9h41.4l10.8-11.5l20,15.4c1.5,1.5,2.3,3.3,2.3,5.3s-0.9,4.2-2.9,5.3
		l-6,3.6c-0.6,17.5-2,32.2-4.3,44c-2.6,12.7-6.4,21.2-11.1,25.6c-5.5,5.7-13.4,8.5-23.7,8.5c-1.4-11.1-3.8-17.1-7.4-18l-16-4.9
		l1.1-8.9c11.2,2.4,18.7,3.6,22.3,3.6s7.9-1.5,10-4.6c1.8-2,3.3-7.8,4.6-17.4c1.1-10.1,1.9-22.4,2.3-36.8h-43.4v115.3
		c0,2.4-1,4.1-2.9,5.2c-2.7,1.8-6.6,2.6-11.8,2.6s-7.6-1.7-8-5.2l1.2-52.5v-65.3h-28.8c-0.6,4.8-1.3,9.6-2,14.1
		c-2.1,17.1-5.6,32-10.6,44.6c-5.3,13.4-12.1,25-20.2,34.8c-8.8,10.7-21.2,20.6-37.4,29.5l-2.3-7.8c11-8.6,19.5-18,25.4-28.3
		c7.2-10,12.9-22,17.1-35.7c3.6-11.2,6.5-25.8,8.6-43.7c0.2-2.4,0.4-4.9,0.6-7.6h-29.9c-0.6,6.4-1.2,12.7-1.7,19.1
		c-1,2.6-4.3,4-10,4s-10-2.6-10-7.7c4.7-37.6,8.1-70.5,10-98.8l16.8,14.1l-0.3,1.3h26.8v-45h-11.1c-10.2,0-20.7,0.9-31.1,2.6
		l-5.7-15.4L1058.3,312.5L1058.3,312.5z M1105.1,429.2c0.8-12.1,1.1-25.3,1.1-39.7v-10.2h-27.4c-1,15.5-2.1,32.2-3.4,49.9
		L1105.1,429.2L1105.1,429.2z M1154.3,429.2v-49.9h-26.6v10.2c0,14.2-0.5,27.5-1.7,39.7L1154.3,429.2L1154.3,429.2z M1127.7,370.5
		h26.6v-45h-26.6V370.5z M1175.8,370.5h25.3v-45h-25.3V370.5z"/>
	<path class="st0" d="M1036.1,261.4l26.8,10.2c3.8,1.5,5.7,4,5.7,7.6s-4.1,5-12.3,6.6c-9.7,26.9-19.2,49.7-28.5,68.3l11.1,5
		c3.4,1.3,5.2,3,5.2,4.9s-1.5,3.9-4.6,5l-4.6,3v180.9c0,4.5-1.9,7.4-5.7,9.2c-3.1,1.5-6.3,2.3-9.7,2.3c-5,0-7.7-3-8-9.2
		c0-6.3,0.4-17.8,1.1-34.4V381.9c-7.6,12.5-17.2,26.3-28.8,41.4l-5.7-3.9c14.5-26.3,25.5-50.2,33.1-71.6
		c8.9-24.6,17.3-53.3,24.9-86.1 M1058.3,312.5c12.3,2.6,24.6,3.9,36.8,3.9h11.2v-12.8c0-6.6-0.7-20-2-40.1l25.4,4.2
		c5.4,0.9,8,3,8,6.2s-3.3,5.8-10,8.8v33.5h26.6v-11.8c0-18.4-1-32.1-3.1-41l27.4,4.6c4.8,0.5,7.2,2.4,7.2,5.9s-1.5,5.4-4.6,6.3
		l-5.4,2.6v33.5h23.4l12.3-14.1L1228,317c3.1,2,4.6,3.8,4.6,5.6s-1.1,3.8-3.1,4.9l-6.8,4V355l1.1,28.3c0,2.4-1.4,4.3-4,5.9
		c-2.1,1.9-4.8,3-8.2,3c-6.9,0-10.3-2.1-10.3-6.3v-6.6H1176v49.9h41.4l10.8-11.5l20,15.4c1.5,1.5,2.3,3.3,2.3,5.3s-0.9,4.2-2.9,5.3
		l-6,3.7c-0.6,17.5-2,32.2-4.3,44c-2.7,12.7-6.4,21.2-11.2,25.6c-5.5,5.7-13.4,8.5-23.7,8.5c-1.4-11.1-3.8-17.1-7.4-18l-16-4.9
		l1.2-8.9c11.2,2.4,18.6,3.6,22.3,3.6s7.9-1.5,10-4.6c1.7-1.9,3.3-7.7,4.6-17.3c1.1-10.1,1.9-22.4,2.3-36.8H1176v115.3
		c0,2.4-1,4.2-2.8,5.2c-2.7,1.8-6.6,2.6-11.8,2.6s-7.6-1.7-8-5.2l1.2-52.5v-65.4h-28.8c-0.6,4.9-1.3,9.6-2,14.1
		c-2.1,17.1-5.6,32-10.6,44.6c-5.3,13.4-12.1,25-20.2,34.8c-8.8,10.7-21.2,20.6-37.4,29.5l-2.3-7.8c11-8.5,19.5-18,25.4-28.3
		c7.2-10,12.9-22,17.1-35.8c3.6-11.2,6.5-25.8,8.6-43.7c0.2-2.4,0.4-4.9,0.6-7.6h-29.9c-0.6,6.4-1.2,12.7-1.8,19.1
		c-1,2.6-4.3,4-10,4s-10-2.6-10-7.7c4.8-37.6,8.1-70.5,10-98.8l16.8,14.1l-0.3,1.3h26.8v-45h-11.2c-10.2,0-20.6,0.9-31.1,2.6
		l-5.7-15.4L1058.3,312.5L1058.3,312.5z M1105.1,429.2c0.8-12.1,1.2-25.3,1.2-39.8v-10.2h-27.4c-1,15.6-2.1,32.2-3.4,49.9
		L1105.1,429.2L1105.1,429.2L1105.1,429.2z M1154.3,429.2v-49.9h-26.6v10.2c0,14.3-0.6,27.5-1.8,39.8L1154.3,429.2L1154.3,429.2z
		 M1127.7,370.5h26.6v-45h-26.6V370.5z M1175.8,370.5h25.3v-45h-25.3V370.5z"/>
	<path class="st0" d="M1413.4,259.7l26.6,3.9c5.3,0.9,8,3,8,6.3s-3.7,7.3-11.1,10.2v19.4h82.4l16.5-22l22.2,18.7
		c2.3,2.4,3.4,4.8,3.4,7.2s-1.4,4.9-4.3,4.9h-233c-10.4,0-20.8,0.9-31,2.6l-5.7-15.5c12.4,2.6,24.6,4,36.7,4h90.1v-20.7
		c0-3.1-0.3-9.5-0.9-19.1 M1453.3,313.6l25.4,12.5c3.2,1.3,4.8,3,4.8,5.2c0,3.3-4.1,5.4-12.3,6.5c-6.3,7.7-14.3,16.7-24.2,27h63
		l12.3-16.8l19.7,17.4c2.6,2.2,4,4.5,4,6.9s-1.2,4.2-3.8,5.3l-7.7,5.3v143.7c0,11.3-5,20.6-15.1,27.9c-8.7,5.5-16.6,8.2-23.6,8.2
		c0-8.3-0.9-14-2.6-17c-1.8-2.9-10.2-6.2-25.4-9.9v-7.9l33.4,1.3c6.7,0,10-2.5,10-7.5v-148h-60.1V397c0,5,3,7.6,8.9,7.6h15.9
		c5.5,0,8.8-1.6,9.7-4.9l6.8-22l4.6,1.3v19.4c0,3.5,1.1,5.9,3.4,7.3c2.1,1.5,3.1,4.2,3.1,8.2s-1.5,6.6-4.6,7.9
		c-5.7,2.4-15.8,3.6-30.3,3.6s-27-1.8-31.4-5.3c-3.4-3-5.1-8.2-5.1-15.4v-30.9h-30.2c-0.6,4.9-1.7,9.7-3.4,14.8
		c-3.1,8.8-7.3,16.2-12.8,22.4c-5.9,6.8-14,13-24.2,18.4c-8,3.3-16.4,6.3-25.2,8.9l-2.2-6.6c7.2-2.6,13.7-5.9,19.4-9.8
		c5.5-3.9,10.4-8.3,14.5-13.2c3.6-5.1,6.5-10.9,8.8-17.5c2.1-5.7,3.4-11.4,4-17.4h-51v182.4c0,3.3-1.8,5.7-5.4,7.2
		c-3.2,1.3-6.6,2-10.2,2c-5.4,0-8-3.1-8-9.3l1.1-53.9V372.3c0-8.7-0.6-15.9-2-21.6l24.5,14.1h107.3c3.9-10.1,6.8-18.1,8.5-24
		C1448.7,331.4,1451.2,322.3,1453.3,313.6 M1365.6,434.2l22.2,12.8h61.4l11.1-12.8l14.9,13.8c2.6,2,4,3.8,4,5.6s-1,3.2-2.9,4.3
		l-6,3.2v27l1.2,25.6c0,2.6-1.2,4.7-3.4,6.3c-1.9,1.9-4.5,3-7.7,3c-6.8,0-10.3-2.2-10.3-6.6v-3.9H1388v6.6c0,3.5-1.4,5.9-4.3,7.2
		c-2.8,2-5.9,3-9.1,3s-6.5-2.5-6.8-7.6v-66.8C1367.8,444.4,1367.1,437.5,1365.6,434.2 M1371,313.7c8.9,6.1,16.2,12.2,22,18.3
		c5.5,5.8,8.3,10.7,8.3,14.8c0,10.3-3.8,15.4-11.4,15.4s-7.1-3-8.6-9.2c-3.2-11.4-8.5-23.3-15.7-35.8l5.5-3.6L1371,313.7L1371,313.7
		z M1387.9,503.6h62.1V456h-62.1V503.6z"/>
	<path class="st0" d="M1413.4,259.6l26.6,4c5.3,0.9,8,3,8,6.2s-3.7,7.3-11.1,10.2v19.4h82.4l16.5-22l22.2,18.8
		c2.3,2.4,3.4,4.8,3.4,7.2s-1.4,4.9-4.3,4.9h-233c-10.4,0-20.8,0.9-31,2.6l-5.7-15.5c12.4,2.6,24.6,4,36.7,4h90.1v-20.7
		c0-3.1-0.3-9.5-0.9-19.1 M1453.3,313.6l25.4,12.5c3.2,1.3,4.8,3,4.8,5.2c0,3.3-4.1,5.4-12.2,6.5c-6.3,7.7-14.3,16.7-24.2,27h63
		l12.3-16.8l19.7,17.4c2.6,2.2,4,4.5,4,6.9s-1.2,4.2-3.8,5.3l-7.7,5.3v143.7c0,11.3-5,20.7-15.1,27.9c-8.7,5.5-16.6,8.2-23.6,8.2
		c0-8.3-0.9-14-2.6-17.1c-1.8-2.9-10.2-6.2-25.4-9.9v-7.9l33.4,1.3c6.7,0,10-2.5,10-7.5v-148h-60.1V397c0,5,3,7.6,8.9,7.6h15.9
		c5.5,0,8.8-1.6,9.7-4.9l6.8-22l4.6,1.4v19.3c0,3.5,1.1,5.9,3.4,7.3c2.1,1.5,3.1,4.3,3.1,8.2s-1.5,6.6-4.6,7.9
		c-5.7,2.4-15.8,3.6-30.3,3.6s-27-1.8-31.4-5.3c-3.4-3-5.1-8.2-5.1-15.4v-30.9H1402c-0.6,4.9-1.7,9.7-3.4,14.8
		c-3.1,8.8-7.3,16.2-12.8,22.4c-5.9,6.8-14,13-24.2,18.4c-8,3.3-16.4,6.3-25.2,8.9l-2.2-6.6c7.2-2.6,13.7-5.9,19.4-9.8
		c5.5-3.9,10.4-8.3,14.5-13.2c3.6-5.1,6.5-10.9,8.8-17.5c2.1-5.7,3.4-11.4,4-17.4h-51v182.4c0,3.3-1.8,5.7-5.4,7.2
		c-3.2,1.4-6.6,2-10.2,2c-5.4,0-8-3.1-8-9.3l1.1-53.9V372.2c0-8.8-0.6-16-2-21.7l24.5,14.1h107.3c4-10.1,6.8-18.1,8.5-24
		c3.1-9.4,5.6-18.5,7.7-27.2 M1365.6,434.2l22.2,12.8h61.4l11.1-12.8l14.9,13.8c2.6,2,4,3.8,4,5.6s-1,3.2-2.9,4.3l-6,3.2v27
		l1.2,25.6c0,2.6-1.2,4.7-3.4,6.3c-1.9,1.9-4.5,3-7.7,3c-6.8,0-10.3-2.2-10.3-6.6v-3.9H1388v6.6c0,3.5-1.4,5.9-4.3,7.2
		c-2.8,2-5.9,3-9.1,3s-6.5-2.5-6.8-7.6v-66.8C1367.8,444.4,1367.1,437.5,1365.6,434.2 M1371,313.7c8.9,6.1,16.2,12.2,22,18.3
		c5.5,5.7,8.3,10.7,8.3,14.8c0,10.3-3.8,15.4-11.4,15.4s-7.1-3-8.6-9.2c-3.2-11.4-8.5-23.3-15.7-35.8l5.5-3.6L1371,313.7L1371,313.7
		z M1387.9,503.6h62.1V456h-62.1V503.6z"/>
	<path class="st0" d="M1691.9,261l25.7,4c5.1,0.9,7.7,3,7.7,6.3s-3.7,6.2-11.1,8.9v46.3h29v-45c0-3.3-0.4-9.8-1.1-19.4l25.7,4.3
		c5.1,0.8,7.6,2.9,7.6,6.2s-3.7,6.3-11,8.9v45h15.1c4.7-10.3,8.4-18.4,10.9-24.3c4.4-10.8,8-21,10.8-30.9l25.4,12.5
		c3,1.3,4.5,3.2,4.5,5.6s-4.1,5.1-12.2,6.2c-7.2,8.8-16.5,19.1-27.9,30.9h34.7l15.7-20.7l20.8,17.7c2.5,2.2,3.7,4.5,3.7,6.9
		s-1.5,4.9-4.6,4.9h-80.9l14.8,7.6c3.3,1.3,4.9,3.1,4.9,5.3c0,3.3-4.1,5.5-12.2,6.5c-6.5,5.9-14.7,12.7-24.6,20.4h47.9l16.9-21.7
		l22,18.7c2.4,2.2,3.7,4.6,3.7,6.9c0,3.5-1.5,5.3-4.6,5.3H1740v30.5h51.3l15.4-20.4l21.1,17.7c2.3,2.2,3.4,4.4,3.4,6.6
		c0,3.5-1.4,5.3-4.3,5.3H1740v29.5h80.1l16.8-22l22,18.8c2.4,2.5,3.6,4.7,3.6,6.9c0,3.5-1.4,5.2-4.5,5.2h-112.3
		c9.9,7.3,20,13.7,30.5,19.4c12.1,6.8,24.9,12.5,38.2,17.1c15,5.2,32.9,9.7,53.6,13.4l-2,9.3c-4.2,0-7.7,0.3-10.6,0.9
		c-3,1.4-7,7.8-12,19.4c-13.5-4.8-27.9-11.8-43-21c-15.2-9-29-19.8-41.3-32.5c-6.1-5.3-12.5-11.8-19.1-19.8v86.1
		c0,3.3-1,5.8-3.1,7.3c-3.6,1.3-7.4,2-11.4,2c-5.7,0-8.7-1.8-8.9-5.3l1.1-55.2v-20.7c-4.7,4.3-9.6,8.3-14.5,11.8
		c-12.9,10.9-29.5,21.2-49.6,30.9c-15.7,7.4-32.7,14.2-50.7,20.3l-3.1-6.5c16.1-7.7,30.8-15.8,43.9-24.3
		c13.3-8.5,25.3-17.5,36.2-26.9c8.9-8.5,16.8-17.1,23.7-25.6h-63.8c-10.3,0-20.6,0.9-31.1,2.6l-5.7-15.5c12.3,2.6,24.6,3.9,36.8,3.9
		h78.1v-29.5h-50.2c-10.5,0-20.8,0.9-31.1,2.6l-5.7-15.4c12.4,2.4,24.6,3.6,36.8,3.6h50.2v-30.5h-63.5c-10.2,0-20.6,0.8-31.1,2.3
		l-5.7-15.1c12.4,2.4,24.6,3.6,36.8,3.6h97.1c4.2-8.6,7.3-15.2,9.4-20c3-6.9,5.6-13.4,7.7-19.7h-130.7c-10.5,0-20.9,0.9-31.4,2.6
		l-5.4-15.5c12.1,2.6,24.4,3.9,36.8,3.9h55.6v-46.3c0-3.1-0.4-9.4-1.2-19.1 M1637.5,274c11,7,19.6,13.1,25.7,18.4
		c5.8,5.7,8.8,11,8.8,16.1c0,9.4-4.1,14.2-12.3,14.2s-6.8-3.2-9.1-9.6c-4-12.1-10.3-23.5-18.8-34.2L1637.5,274L1637.5,274
		L1637.5,274z M1676.3,338c8.8,4.4,15.5,8.1,20.2,11.2c4.4,3.3,6.5,6.5,6.5,9.5c0,9.3-4.1,13.8-12.2,13.8s-5-2-6.6-6.2
		c-2.8-7.7-7.3-14.9-13.4-21.6l5.4-6.6h0.1V338z"/>
	<path class="st0" d="M1691.9,261l25.7,4c5.1,0.9,7.7,3,7.7,6.3s-3.7,6.2-11.1,8.9v46.3h29v-45c0-3.3-0.4-9.8-1.1-19.4l25.7,4.3
		c5.1,0.8,7.6,2.9,7.6,6.2s-3.7,6.3-11,8.9v45h15.1c4.7-10.3,8.4-18.4,10.9-24.3c4.4-10.8,8-21,10.8-30.9l25.4,12.5
		c3,1.3,4.5,3.2,4.5,5.6s-4.1,5.1-12.2,6.2c-7.2,8.8-16.5,19.1-27.9,30.9h34.7l15.7-20.7l20.8,17.7c2.5,2.2,3.7,4.5,3.7,6.9
		s-1.5,4.9-4.6,4.9h-80.9l14.8,7.6c3.3,1.3,4.9,3.1,4.9,5.3c0,3.3-4.1,5.5-12.2,6.5c-6.5,5.9-14.7,12.7-24.6,20.4h47.9l16.9-21.7
		l22,18.7c2.4,2.2,3.7,4.6,3.7,6.9c0,3.5-1.5,5.3-4.6,5.3H1740v30.5h51.3l15.4-20.4l21.1,17.7c2.3,2.2,3.4,4.4,3.4,6.6
		c0,3.5-1.4,5.3-4.3,5.3H1740v29.5h80.1l16.8-22l22,18.8c2.4,2.5,3.6,4.7,3.6,6.9c0,3.5-1.4,5.2-4.5,5.2h-112.3
		c9.9,7.3,20,13.7,30.5,19.4c12.1,6.8,24.9,12.5,38.2,17.1c15,5.2,32.9,9.7,53.6,13.4l-2,9.3c-4.2,0-7.7,0.3-10.6,0.9
		c-3,1.4-7,7.8-12,19.4c-13.5-4.8-27.9-11.8-43-21c-15.2-9-29-19.8-41.3-32.5c-6.1-5.3-12.5-11.8-19.1-19.8v86.1
		c0,3.3-1,5.8-3.1,7.3c-3.6,1.3-7.4,2-11.4,2c-5.7,0-8.7-1.8-8.9-5.3l1.1-55.2v-20.7c-4.7,4.3-9.6,8.3-14.5,11.8
		c-12.9,10.9-29.5,21.2-49.6,30.9c-15.7,7.4-32.7,14.2-50.7,20.3l-3.1-6.5c16.1-7.7,30.8-15.8,43.9-24.3
		c13.3-8.5,25.3-17.5,36.2-26.9c8.9-8.5,16.8-17.1,23.7-25.6h-63.8c-10.3,0-20.6,0.9-31.1,2.6l-5.7-15.5c12.3,2.6,24.6,3.9,36.8,3.9
		h78.1v-29.5h-50.2c-10.5,0-20.8,0.9-31.1,2.6l-5.7-15.4c12.4,2.4,24.6,3.6,36.8,3.6h50.2v-30.5h-63.5c-10.2,0-20.6,0.8-31.1,2.3
		l-5.7-15.1c12.4,2.4,24.6,3.6,36.8,3.6h97.1c4.2-8.6,7.3-15.2,9.4-20c3-6.9,5.6-13.4,7.7-19.7h-130.7c-10.5,0-20.9,0.9-31.4,2.6
		l-5.4-15.5c12.1,2.6,24.4,3.9,36.8,3.9h55.6v-46.3c0-3.1-0.4-9.4-1.2-19.1 M1637.5,274c11,7,19.6,13.1,25.7,18.4
		c5.8,5.7,8.8,11,8.8,16.1c0,9.4-4.1,14.2-12.3,14.2s-6.8-3.2-9.1-9.6c-4-12.1-10.3-23.5-18.8-34.2L1637.5,274L1637.5,274
		L1637.5,274z M1676.3,338c8.8,4.4,15.5,8.1,20.2,11.2c4.4,3.3,6.5,6.5,6.5,9.5c0,9.3-4.1,13.8-12.2,13.8s-5-2-6.6-6.2
		c-2.8-7.7-7.3-14.9-13.4-21.6l5.4-6.6h0.1V338z"/>
	<path class="st0" d="M1906.5,317.6c12.2,2.6,24.4,3.9,36.8,3.9h34.5l15.7-19l19.9,16.4c2.3,2.2,3.5,4.4,3.5,6.6
		c0,3.5-1.5,5.3-4.6,5.3h-68.9c-10.4,0-20.9,0.8-31.4,2.3l-5.4-15.4h-0.1V317.6z M1914.2,276.5c12.4,2.6,24.6,3.9,36.8,3.9h18
		l14.5-18l18.8,15.8c2.3,2.2,3.5,4.2,3.5,6.2c0,3.5-1.5,5.3-4.6,5.3H1951c-10.2,0-20.6,0.8-31.1,2.3L1914.2,276.5L1914.2,276.5z
		 M1914.2,361.2c12.4,2.6,24.6,4,36.8,4h18l14.5-18.1l18.8,15.8c2.3,2,3.5,4,3.5,6.2c0,3.3-1.5,5-4.6,5H1951
		c-10.2,0-20.6,0.9-31.1,2.6L1914.2,361.2L1914.2,361.2L1914.2,361.2z M1914.2,404.9c12.4,2.6,24.6,4,36.8,4h16.8l14.5-18.1
		l19.1,15.7c2.1,2,3.1,4.1,3.1,6.2c0,3.3-1.5,5-4.6,5h-49c-10.2,0-20.6,0.9-31.1,2.7L1914.2,404.9L1914.2,404.9L1914.2,404.9z
		 M1914.3,444.5l23.4,12.9h42.5l12.2-14.2l16.5,14.8c3.1,2.2,4.6,4.2,4.6,5.9s-1.1,3.9-3.2,5l-6.8,4v49l1.1,28.3
		c0,2.4-1.3,4.4-3.7,5.9c-2.3,2-5.1,3-8.5,3c-6.6,0-10-2.1-10-6.2v-14.1h-44.7v12.7c0,3.5-1.6,5.9-4.9,7.2c-3.2,2-6.8,3-10.6,3
		s-6.4-2.6-6.8-7.8l1.2-30.6v-57.9c0-10.5-0.8-17.4-2.3-20.7 M1937.6,529.4h44.7v-62.8h-44.7V529.4z M2015.7,279.2
		c12.1,2.6,24.4,3.9,36.8,3.9h77.8l15.7-20.7l21.1,17.7c2.3,2.2,3.4,4.5,3.4,6.9s-1.5,5-4.6,5h-65.6v136h34.5l16.9-22l21.9,18.8
		c2.2,2.2,3.4,4.5,3.4,6.9c0,3.5-1.5,5.3-4.3,5.3h-72.4v117.8c0,3.3-1,5.7-3.1,7.3c-3.7,1.3-7.5,2-11.4,2c-5.7,0-8.7-1.8-8.9-5.3
		l1.2-55.1v-66.6H2039c-10.5,0-20.9,0.8-31.3,2.6l-5.4-15.4c12.1,2.6,24.4,3.9,36.7,3.9h39.1v-136h-25.6c-10.5,0-20.9,0.8-31.4,2.6
		l-5.4-15.5l0,0L2015.7,279.2z M2024.5,324.1c12,12.1,21.8,23.8,29.4,35.4c7.2,11.1,10.8,20.7,10.8,28.6s-3.4,14.1-10,14.1
		s-10.6-5-12.6-15.1c-4.7-18.8-12.5-38.5-23.1-59.1l5.4-3.9H2024.5L2024.5,324.1z M2142.6,320.2l25.3,12.5c3.2,1.5,4.9,3.4,4.9,5.6
		c0,3.3-4.2,5.5-12.3,6.6c-10.6,15.9-24.8,35.1-42.5,57.4l-6.6-2.3c7.7-16.4,13.3-29.2,16.8-38.1c5.7-14.4,10.5-28.3,14.3-41.7"/>
	<path class="st0" d="M1906.5,317.6c12.2,2.6,24.4,3.9,36.8,3.9h34.5l15.7-19l19.9,16.4c2.3,2.2,3.5,4.4,3.5,6.6
		c0,3.5-1.5,5.3-4.6,5.3h-68.9c-10.4,0-20.9,0.8-31.4,2.3l-5.4-15.4h-0.1V317.6z M1914.2,276.5c12.4,2.6,24.6,3.9,36.8,3.9h18
		l14.5-18l18.8,15.8c2.3,2.2,3.5,4.2,3.5,6.2c0,3.5-1.5,5.3-4.6,5.3H1951c-10.2,0-20.6,0.8-31.1,2.3L1914.2,276.5L1914.2,276.5z
		 M1914.2,361.2c12.4,2.6,24.6,4,36.8,4h18l14.5-18.1l18.8,15.8c2.3,2,3.5,4,3.5,6.2c0,3.3-1.5,5-4.6,5H1951
		c-10.2,0-20.6,0.9-31.1,2.6L1914.2,361.2L1914.2,361.2L1914.2,361.2z M1914.2,404.9c12.4,2.6,24.6,4,36.8,4h16.8l14.5-18.1
		l19.1,15.7c2.1,2,3.1,4.1,3.1,6.2c0,3.3-1.5,5-4.6,5h-49c-10.2,0-20.6,0.9-31.1,2.7L1914.2,404.9L1914.2,404.9L1914.2,404.9z
		 M1914.3,444.5l23.4,12.9h42.5l12.2-14.2l16.5,14.8c3.1,2.2,4.6,4.2,4.6,5.9s-1.1,3.9-3.2,5l-6.8,4v49l1.1,28.3
		c0,2.4-1.3,4.4-3.7,5.9c-2.3,2-5.1,3-8.5,3c-6.6,0-10-2.1-10-6.2v-14.1h-44.7v12.7c0,3.5-1.6,5.9-4.9,7.2c-3.2,2-6.8,3-10.6,3
		s-6.4-2.6-6.8-7.8l1.2-30.6v-57.9c0-10.5-0.8-17.4-2.3-20.7 M1937.6,529.4h44.7v-62.8h-44.7V529.4z M2015.7,279.2
		c12.1,2.6,24.4,3.9,36.8,3.9h77.8l15.7-20.7l21.1,17.7c2.3,2.2,3.4,4.5,3.4,6.9s-1.5,5-4.6,5h-65.6v136h34.5l16.9-22l21.9,18.8
		c2.2,2.2,3.4,4.5,3.4,6.9c0,3.5-1.5,5.3-4.3,5.3h-72.4v117.8c0,3.3-1,5.7-3.1,7.3c-3.7,1.3-7.5,2-11.4,2c-5.7,0-8.7-1.8-8.9-5.3
		l1.2-55.1v-66.6H2039c-10.5,0-20.9,0.8-31.3,2.6l-5.4-15.4c12.1,2.6,24.4,3.9,36.7,3.9h39.1v-136h-25.6c-10.5,0-20.9,0.8-31.4,2.6
		l-5.4-15.5l0,0L2015.7,279.2z M2024.5,324.1c12,12.1,21.8,23.8,29.4,35.4c7.2,11.1,10.8,20.7,10.8,28.6s-3.4,14.1-10,14.1
		s-10.6-5-12.6-15.1c-4.7-18.8-12.5-38.5-23.1-59.1l5.4-3.9H2024.5L2024.5,324.1z M2142.6,320.2l25.3,12.5c3.2,1.5,4.9,3.4,4.9,5.6
		c0,3.3-4.2,5.5-12.3,6.6c-10.6,15.9-24.8,35.1-42.5,57.4l-6.6-2.3c7.7-16.4,13.3-29.2,16.8-38.1c5.7-14.4,10.5-28.3,14.3-41.7"/>
	<path class="st0" d="M2214.4,320c12.4,2.6,24.6,4,36.7,4h34.4l15.7-19.4l19.9,16.8c2.2,2.2,3.4,4.4,3.4,6.6c0,3.3-1.5,4.9-4.5,4.9
		h-68.9c-10.5,0-20.8,0.9-31.1,2.6l-5.7-15.4L2214.4,320L2214.4,320z M2218.9,449.7l23.4,12.8h36.7l12.2-14.1l16.5,14.8
		c3.1,2.2,4.6,4.2,4.6,6s-1.1,3.8-3.1,4.9l-6.9,4v46.3l1.2,28.3c0,2.4-1.4,4.4-4,5.9c-2.1,2-4.9,3-8.3,3c-6.8,0-10.2-2.2-10.2-6.6
		v-11.5h-38.7v7.9c0,3.5-1.6,5.9-4.9,7.2c-3.3,2-6.8,3-10.8,3s-6.4-2.6-6.5-7.9l0.9-30.6v-52.9c0-10.3-0.7-17.1-2.1-20.4
		 M2222,280.2c12.4,2.6,24.6,3.9,36.7,3.9h13.4l15.6-19.4l20,16.8c2.3,2.2,3.4,4.4,3.4,6.6c0,3.3-1.5,4.9-4.6,4.9h-47.8
		c-10.3,0-20.6,0.9-31,2.6L2222,280.2L2222,280.2L2222,280.2z M2223.2,366.4c12.3,2.6,24.5,3.9,36.7,3.9h6.8l15.4-19.4l20.2,16.7
		c2.1,2.2,3.1,4.3,3.1,6.3c0,3.5-1.4,5.3-4.2,5.3h-41.4c-10.2,0-20.6,0.9-31,2.6L2223.2,366.4L2223.2,366.4L2223.2,366.4z
		 M2223.2,413.9c12.3,2.4,24.5,3.6,36.7,3.6h6.8l15.4-19.1l20.2,16.4c2.1,2.2,3.1,4.4,3.1,6.6c0,3.4-1.4,5.2-4.2,5.2h-41.4
		c-10.2,0-20.6,0.8-31,2.4L2223.2,413.9L2223.2,413.9L2223.2,413.9z M2242.3,534.5h38.6v-63h-38.6V534.5z M2378.9,258.5l27.1,6.2
		c4.4,1.1,6.6,3.3,6.6,6.6s-4.2,5.7-12.5,7.9c7.2,10.1,14.5,19,21.9,26.9c8.5,9.5,17.6,17.3,27.1,23.7c10.6,7.2,23.2,13.3,37.9,18.4
		l-2.3,9.2c-3.8,0-7.1,0.4-9.7,1c-2.9,0.9-6.6,6.9-11.4,18.1c-9.1-5.9-18.8-14.6-29.1-26c-10.2-10.9-19.5-24.4-27.6-40.1
		c-3.8-5.7-7.7-12.8-11.7-21.3c-9.3,17.3-20.5,33.5-33.6,48.6c-12.7,13.8-29.2,26.7-49.3,38.8l-4.6-7.6
		c14.8-11.7,28.2-26.4,40.1-44.4c11.4-17.1,21.8-39.1,31-66.1 M2316.5,393.1l23.6,12.8h103.8l13.1-12.8l17.1,16.8
		c1.9,1.8,2.8,3.8,2.8,6.2s-1.1,2.8-3.1,3.6l-5.7,3v104c0,7.9-1.5,14.1-4.6,18.7c-2.1,4.6-5.6,8.3-10.5,11.2
		c-5.3,3.3-9.9,4.9-14,4.9c0-7-0.5-11.7-1.4-14.1c-1.1-3-5.8-6-14-8.8l0.8-7.9l14.5,1.4c2.7,0,4.6-0.6,5.8-1.7
		c1.4-1.3,2.2-3.8,2.2-7.2v-46.4h-26.8v65.4c0,3.5-1.5,6.1-4.6,7.8c-3,1.8-6,2.6-8.9,2.6c-4.9,0-7.5-2.6-7.7-7.9l1.2-30.9v-37.1h-19
		v66.7c0,3.5-1.5,6.1-4.6,7.9c-3,1.6-5.9,2.4-8.8,2.4c-5,0-7.5-2.6-7.7-7.6l1.1-30.8v-38.5H2340v75.9c0,3.5-1.7,5.8-5.1,6.9
		c-3.3,2.2-6.8,3.3-10.6,3.3s-6.5-2.6-6.8-7.9l1.1-30.6V414c0-10.5-0.8-17.4-2.2-20.7 M2340.2,468h21.1v-53h-21.1V468z
		 M2346.8,357.5c12.2,2.4,24.4,3.7,36.7,3.7h9.9l15.7-19.1l19.9,16.8c2.3,1.9,3.4,4.1,3.4,6.2c0,3.5-1.5,5.3-4.6,5.3h-44.4
		c-10.5,0-20.8,0.8-31.1,2.3l-5.7-15.2L2346.8,357.5L2346.8,357.5z M2381.2,468h19v-53h-19V468z M2420.2,468h26.8v-53h-26.8V468z"/>
	<path class="st0" d="M2214.4,320c12.4,2.6,24.6,3.9,36.7,3.9h34.4l15.7-19.4l19.9,16.8c2.3,2.2,3.4,4.4,3.4,6.6
		c0,3.3-1.5,4.9-4.6,4.9H2251c-10.5,0-20.8,0.8-31.1,2.6l-5.7-15.4H2214.4L2214.4,320z M2218.9,449.7l23.4,12.8h36.7l12.2-14.1
		l16.5,14.8c3.1,2.2,4.6,4.2,4.6,5.9s-1.1,3.8-3.1,4.9l-6.9,4v46.2l1.1,28.3c0,2.4-1.3,4.4-4,5.9c-2.1,2-4.8,3-8.2,3
		c-6.8,0-10.2-2.2-10.2-6.6v-11.5h-38.7v7.9c0,3.5-1.6,6-4.9,7.2c-3.3,2-6.8,3-10.8,3s-6.4-2.6-6.5-7.9l0.9-30.6v-52.9
		c0-10.3-0.7-17-2-20.4 M2222,280.1c12.4,2.6,24.6,3.9,36.8,3.9h13.4l15.6-19.4l20,16.8c2.3,2.2,3.4,4.4,3.4,6.5
		c0,3.3-1.5,4.9-4.6,4.9h-47.8c-10.3,0-20.6,0.9-31,2.6L2222,280.1L2222,280.1L2222,280.1z M2223.2,366.4
		c12.3,2.6,24.5,3.9,36.7,3.9h6.8l15.4-19.4l20.2,16.8c2.1,2.2,3.1,4.2,3.1,6.2c0,3.5-1.4,5.3-4.2,5.3h-41.4
		c-10.2,0-20.6,0.9-31,2.6L2223.2,366.4L2223.2,366.4L2223.2,366.4z M2223.2,413.9c12.3,2.4,24.5,3.6,36.7,3.6h6.8l15.4-19
		l20.2,16.4c2.1,2.2,3.1,4.4,3.1,6.6c0,3.4-1.4,5.2-4.2,5.2h-41.4c-10.2,0-20.6,0.8-31,2.3L2223.2,413.9L2223.2,413.9L2223.2,413.9z
		 M2242.3,534.5h38.6v-63h-38.6V534.5z M2378.9,258.5l27.1,6.3c4.4,1.1,6.6,3.3,6.6,6.5s-4.2,5.7-12.5,7.9
		c7.2,10.1,14.5,19.1,21.9,26.9c8.6,9.4,17.6,17.3,27.1,23.7c10.6,7.2,23.2,13.4,37.9,18.4l-2.2,9.2c-3.8,0-7.1,0.4-9.7,1
		c-2.9,0.9-6.6,6.9-11.4,18.1c-9.1-6-18.8-14.6-29.1-26c-10.2-10.9-19.5-24.3-27.6-40.1c-3.8-5.7-7.7-12.8-11.7-21.4
		c-9.3,17.3-20.5,33.5-33.6,48.7c-12.7,13.8-29.1,26.7-49.3,38.8l-4.5-7.6c14.8-11.7,28.2-26.4,40.1-44.4c11.4-17,21.8-39.1,31-66.1
		 M2316.5,393.1l23.6,12.8h103.8l13.1-12.8l17.1,16.8c1.9,1.7,2.9,3.8,2.9,6.2s-1.1,2.8-3.1,3.6l-5.7,3v104c0,7.9-1.5,14.1-4.6,18.8
		c-2.1,4.5-5.6,8.3-10.5,11.2c-5.3,3.3-10,4.9-14,4.9c0-7-0.5-11.7-1.4-14.1c-1.1-3-5.8-6-14-8.8l0.8-7.9l14.5,1.3
		c2.7,0,4.6-0.6,5.8-1.6c1.5-1.3,2.2-3.8,2.2-7.2V477h-26.8v65.4c0,3.5-1.5,6.1-4.6,7.8c-3,1.8-5.9,2.6-8.8,2.6
		c-4.9,0-7.5-2.6-7.7-7.9l1.2-30.9V477h-19v66.7c0,3.5-1.5,6.2-4.6,7.9c-3,1.6-5.9,2.3-8.8,2.3c-5,0-7.5-2.6-7.7-7.6l1.1-30.8V477
		h-21.1v75.9c0,3.5-1.7,5.8-5.1,6.9c-3.3,2.2-6.8,3.3-10.6,3.3s-6.5-2.6-6.8-7.9l1.1-30.6V414.1c0-10.5-0.8-17.3-2.3-20.7
		 M2340.2,467.9h21.1v-53h-21.1V467.9z M2346.8,357.5c12.1,2.4,24.4,3.7,36.7,3.7h9.9l15.7-19.1l19.9,16.8c2.2,2,3.4,4.1,3.4,6.3
		c0,3.5-1.5,5.3-4.6,5.3h-44.4c-10.5,0-20.8,0.8-31.1,2.3l-5.7-15.2h0.2L2346.8,357.5z M2381.2,467.9h19v-53h-19V467.9z
		 M2420.2,467.9h26.8v-53h-26.8V467.9z"/>
	<path class="st1" d="M313,770.6l-4.5-2.5C306.7,767.1,15.7,615,15,260V12.2h613.1V260C627.4,615,336.7,767.2,334.5,768.5l-12.9,6.7
		L313,770.6z"/>
	<path class="st2" d="M33.6,30.8V232h576.1V30.8H33.6z M530.3,85.1h5.4c1,0,1.9,1,1.9,1.7v89.7l-7.5-6.3c0.3-0.5,0.5-1.1,0.5-1.9
		V86.2C530.6,85.7,530.4,85.4,530.3,85.1 M535.5,178.2h-45.4c-0.4-2.5-1.9-4.6-4-6H527c0.5,0,0.8,0,1.2-0.2L535.5,178.2z
		 M437.3,86.3c0.4-0.5,3.2-1.6,3.8-1.4h1.8c8.3,0,18.1,0.6,25.6,3.5c7.6,3,12.8,7.6,12.8,16.4h2.7c0-8.8,5.1-13.4,12.8-16.4
		c7.5-2.9,17.3-3.5,25.6-3.5h2c0.3,0,1.4,0.3,2.3,0.7c0.5,0.2,0.9,0.5,1.1,0.6c0,0.1,0,0.2,0,0.2v81.9c0,0.7-0.6,1.2-1.1,1.2h-88.4
		c-0.6,0-1.1-0.5-1.1-1.2L437.3,86.3L437.3,86.3L437.3,86.3z M438.5,172.2h38.6c-2.1,1.3-3.6,3.5-4,6h-44l7.6-6.5
		C437.3,172,437.9,172.2,438.5,172.2 M427.7,86.8c0-0.7,0.8-1.6,1.9-1.7h5.5c-0.2,0.3-0.4,0.7-0.4,1.1v82.1c0,0.5,0,0.9,0.2,1.3
		l-7.2,6.1v-89l0,0V86.8z M375.9,85.3c1,0,2,1,2,1.7v89.1l-7.3-6.1c0.2-0.4,0.4-0.9,0.4-1.4V86.4c0-0.5-0.3-0.8-0.4-1.1H375.9
		 M376.2,178.5H330c-0.3-2.5-1.7-4.7-3.7-6.1H367c0.6,0,1.1-0.1,1.6-0.3L376.2,178.5z M324.1,102.1c0-7.7,4.1-11.8,9.9-14.3
		c5.9-2.5,13.7-3,20.1-3s7.8,0.2,10.2,0.2s1.5,0.2,2.5,0.7c0.5,0.2,0.8,0.5,1.1,0.6l0,0v82c0,0.6-0.5,1.1-1.1,1.1h-42.9V102
		L324.1,102.1L324.1,102.1z M277.4,86.5c0.2-0.1,0.9-0.6,1.6-0.9c0.9-0.3,1.9-0.5,2.2-0.5c2.4,0,6.1-0.3,10.4-0.3
		c6.4,0,14.1,0.6,19.9,3c5.8,2.6,9.7,6.5,9.8,14.3v67.5h-42.7c-0.6,0-1.2-0.5-1.2-1.1L277.4,86.5L277.4,86.5L277.4,86.5z
		 M278.6,172.4h38.3c-2.1,1.4-3.5,3.5-3.9,6.1h-44.1l7.7-6.5C277.2,172.4,277.8,172.5,278.6,172.4 M267.7,87c0-0.6,0.9-1.7,1.9-1.7
		h5.4c-0.2,0.4-0.3,0.7-0.3,1.1v82.2c0,0.5,0,0.9,0.2,1.2l-7.2,6.2V87L267.7,87L267.7,87z M210.6,85.2h5.4c1.4,0,2,1,2,1.7v89.4
		l-7.3-6.2c0.2-0.5,0.3-1,0.3-1.5V86.5c0-0.5-0.2-0.8-0.3-1.1 M216.1,178.5h-46c-0.3-2.5-1.7-4.7-3.8-6.1H207c0.6,0,1.2,0,1.6-0.3
		L216.1,178.5L216.1,178.5L216.1,178.5z M164.2,102.1c0-7.7,4.1-11.8,10-14.3s13.6-3,20.1-3s7.8,0.2,10.2,0.2s1.5,0.2,2.5,0.7
		s0.8,0.5,1.1,0.6l0,0v82.1c0,0.6-0.6,1.1-1.2,1.1h-42.8V102l0,0L164.2,102.1z M117.5,86.5c0.2-0.1,0.9-0.6,1.6-0.9
		c0.8-0.3,1.9-0.5,2.2-0.5c2.5,0,6.2-0.3,10.5-0.3c6.4,0,14,0.6,19.9,3c5.8,2.6,9.7,6.5,9.8,14.3l0,0v67.5h-42.8
		c-0.6,0-1.2-0.5-1.2-1.1V86.5z M118.6,172.4h38.3c-2.1,1.4-3.5,3.5-3.8,6.1h-43.5c-0.3,0-0.6,0-0.7-0.2l7.6-6.5
		C117.1,172.2,117.9,172.4,118.6,172.4 M107.8,87c0-0.6,0.8-1.7,1.9-1.7h5.4c-0.2,0.4-0.3,0.6-0.3,1.1v82.2c0,0.4,0,0.6,0.2,1
		l-7.1,6L107.8,87L107.8,87L107.8,87z M98.2,185c-1.4,0-2.6-1.2-2.6-2.5v-13.4c-3.8-0.5-6.7-2.9-6.7-5.6s2.9-5.2,6.7-5.6v-43.5
		c-3.8-0.5-6.7-2.8-6.7-5.6s2.9-5.1,6.7-5.7V86c0-1.4,1.1-2.5,2.6-2.5l7.5,1.4c-0.4,0.6-0.6,1.3-0.6,2.1v90c0,2.5,2.2,4.2,4.5,4.2
		h43.6c0.2,1.4,0.9,2.7,1.7,3.8L98.2,185L98.2,185z M164.2,185h-5c-2-1-3.4-3-3.4-5.4s2.6-5.9,5.9-5.9s5.9,2.6,5.9,5.9
		S166.2,184,164.2,185 M233.6,163.5c0,2.7-2.9,5-6.7,5.6v13.4c0,1.3-1,2.5-2.5,2.5h-56.1c0.8-1.1,1.4-2.4,1.6-3.8h46
		c2.4,0,4.5-1.7,4.5-4.2V87c0-1-0.4-1.9-0.9-2.6l4.9-0.9c1.4,0,2.5,1.1,2.5,2.5v17.2c3.8,0.5,6.7,2.8,6.7,5.6s-2.9,5.1-6.7,5.6v43.5
		C230.7,158.3,233.6,160.6,233.6,163.5 M258.1,185c-1.4,0-2.5-1.2-2.5-2.5v-13.4c-3.8-0.5-6.7-2.9-6.7-5.6s2.9-5.2,6.7-5.6v-43.5
		c-3.8-0.5-6.7-2.8-6.7-5.6s2.9-5.1,6.7-5.7V86c0-1.4,1.1-2.5,2.5-2.5l7.6,1.4c-0.4,0.6-0.6,1.3-0.6,2.1v90c0,2.5,2.1,4.2,4.5,4.2
		h43.6c0.2,1.4,0.9,2.7,1.7,3.8L258.1,185L258.1,185L258.1,185z M324.1,185H319c-2-1-3.4-3-3.4-5.4s2.7-5.9,5.9-5.9s5.9,2.6,5.9,5.9
		S326,184,324.1,185 M393.5,163.5c0,2.7-2.8,5-6.6,5.6v13.4c0,1.3-1.1,2.5-2.6,2.5h-56.1c0.9-1.1,1.5-2.4,1.7-3.8h45.9
		c2.4,0,4.5-1.7,4.5-4.2V87c0-1-0.4-1.9-1-2.6l4.9-0.9c1.4,0,2.6,1.1,2.6,2.5v17.2c3.8,0.5,6.6,2.8,6.6,5.6s-2.8,5.1-6.6,5.6v43.5
		C390.6,158.3,393.4,160.6,393.5,163.5 M418,185c-1.3,0-2.5-1.2-2.5-2.5v-13.4c-3.8-0.5-6.6-2.9-6.6-5.6s2.8-5.2,6.6-5.6v-43.5
		c-3.8-0.5-6.6-2.8-6.6-5.6s2.8-5.1,6.6-5.7V86c0-1.4,1.2-2.5,2.5-2.5l7.5,1.4c-0.3,0.6-0.6,1.2-0.6,1.9v90c0,2.4,2.2,4.2,4.6,4.2
		h43.6c0.2,1.5,0.9,2.8,1.7,4L418,185L418,185L418,185z M484,185h-5c-2-1-3.4-3-3.4-5.4s2.6-5.9,5.8-5.9s6,2.6,6,5.9
		S486,184,484,185 M553.5,163.5c0,2.7-2.9,5.1-6.7,5.6v13.4c0,1.3-1.1,2.5-2.5,2.5h-56.1c0.9-1.2,1.5-2.5,1.8-4h45.9
		c2.4,0,4.6-1.7,4.6-4.2v-90c0-1-0.3-1.8-0.8-2.5l4.8-0.9c1.3,0,2.5,1.1,2.5,2.5v17.2c3.8,0.6,6.7,2.9,6.7,5.7s-2.9,5.1-6.7,5.6
		v43.5c3.8,0.5,6.7,2.8,6.7,5.6 M186.6,148c-2.8,0-3.6-0.8-3.6-3.4v-14.4c4.3,0,6.4,1.8,7,9.3h1.1v-20.1H190c-0.7,7.3-2.8,8.9-7,8.9
		v-13.8c0-2.5,0.8-2.7,3.2-2.7c5.8,0,8.9,1.5,9.8,9.9h1.1v-12h-24.8v1.5c2,0.2,3.8,0.2,3.8,4.2v28.9c0,3.6-1.3,3.8-3.8,4.2v1.5h25.2
		l1.8-12.5h-1.2c-2.7,9.1-7.1,10.6-11.3,10.6 M503.8,146.8c1.3,0,3.2,2.1,7.4,2.1c7.9,0,10.7-7.3,10.7-12.5s-3.2-9.9-4.8-10.9
		l-6.2-4.4c-3.7-2.5-4.5-3.7-4.5-6.9s2.4-5.6,4.6-5.6c5.1,0,7.7,6.8,8.5,10.9h1.2v-12.9h-1.2c-0.3,1.1-0.5,2-1.4,2s-3.3-2-6.8-2
		c-8.2,0-9.5,8.1-9.5,11.7s0,7.8,7.4,12.7l2.9,1.9c2.7,1.8,4.8,3.2,4.8,7.2s-0.2,6.8-5.4,6.8c-5.2,0-8-6.9-8.9-12.8h-1.3v14.7h1.3
		C502.8,147.8,503,146.7,503.8,146.8 M126.7,114.3l11,35.7h1.2l9.8-35c1-3.3,1.5-4.5,3.9-4.8v-1.5h-9.2v1.5c2.4,0,3.7,0.3,3.7,2.7
		s-0.4,2.8-0.8,4.1l-5.5,19.6l-5.6-18.8c-0.4-1.5-1.3-4-1.3-5.2c0-2.2,1-2.2,3.8-2.4v-1.5h-14.5v1.5
		C125,110.5,125.7,110.7,126.7,114.3 M298.8,147.1c-2.8-0.6-3.8-0.7-3.8-5.5v-11.7h1.2l9,18.7h8.8v-1.5c-0.5,0-1.1,0-1.8-1.1
		l-8.6-17c2.3-1.1,6.7-2.9,6.7-10.3s-9.1-10.4-12.1-10.4h-13.8v1.6c2.4,0.2,3.8,0.3,3.8,5.4v26.3c0,4.8-0.9,5-3.8,5.5v1.5h14.5
		L298.8,147.1L298.8,147.1L298.8,147.1z M295,113c0.2-1.9,0.3-2.6,2.7-2.6c3.4,0,5.2,2.6,5.2,8.6s-2.2,9-7.9,9.1L295,113L295,113
		L295,113z M449.9,110.3v31.4c0,5-1,5.1-4.2,5.5v1.5h15.4v-1.5c-3.2-0.3-4.2-0.5-4.2-5.5v-31.4c3,0.2,7.4,0.5,8.2,10.1h1.3v-12h-26
		v12h1.2C442.4,110.8,446.8,110.5,449.9,110.3 M476,147c-1.4-0.1-3.5-0.2-3.5-2.5s0.7-3.4,1.9-7.8h9.7c0.6,1.9,1.9,6.4,1.9,8
		s-0.8,2.1-3.4,2.3v1.5h14V147c-2.1,0.2-2.8-1.9-4.7-8.2l-9.6-31.3h-1.2l-9.6,32.5c-1.4,4.5-1.9,6.5-4.2,7v1.5h8.7L476,147L476,147
		L476,147z M479.1,120l4.3,14.5H475L479.1,120L479.1,120L479.1,120z M337.9,110c2,0.2,4,0.3,4,4.1v28.8c0,3.7-1.7,4-4,4.3v1.5H353
		v-1.5c-2.4-0.2-4.1-0.5-4.1-4.3v-28.8c0-4,2.1-4.1,4.1-4.1v-1.6h-15.1V110z"/>
	<path class="st2" d="M425.7,250.7c3.6,5.5,6.1,12,7.2,18.7c3.1,18.7-6,38.5-40.1,40.3c-0.6,28.1-7.4,39.6-42.9,40.2
		c3.1,29.9-12.5,39.7-29.2,39.7s-32.4-9.7-29.3-39.7c-35.5-0.6-42.3-12.1-43-40.2c-34.2-1.8-43.2-21.6-40.1-40.3
		c1.1-6.6,3.6-13.2,7.3-18.7h-182v9.3c0.3,343.4,283,491.4,283.9,491.9l4.2,2.4l4.3-2.4c0.9-0.4,283.6-148.4,283.9-491.9v-9.3H425.7
		L425.7,250.7z M189.5,565.9c6.8-3.6,12-14.1,13.2-21.2c1.7-9.2,3.6-13,8.5-13.2c4.8,0,6.8,4,8.5,13.2c1.2,7.2,6.4,17.6,13.2,21.2
		c4.3,2.2,17.9,2.6,15.1,10.6c-1.9,3.6-4.3,11.1-8.1,7.8c-3.8-3.4-10.1-12.1-12.7-12.5c-2.5-0.5-2.1,3.3-1,4.6
		c1.4,1.6,5.7,7.9,8.2,10.7c3.1,3.6,4.1,10.1-1.4,12.6c-5.4,2.6-11.1-0.7-10.9-3.6c0.2-4.4-2.4-17.1-4.8-17.1s-1.9,3.4-1.8,6.9
		c-0.7,7.4,4.2,13.4,3.7,17.2c-0.7,3.7-1.4,7.7-8,7.7c-6.5-0.2-7.4-4-7.9-7.7c-0.6-3.8,4.3-9.8,3.5-17.2c0.2-3.5,0.2-6.9-1.7-6.9
		s-5.1,12.7-4.8,17.1c0,2.9-5.6,6.2-11,3.6s-4.5-9-1.4-12.6c2.5-2.8,6.8-9.2,8.2-10.7c1-1.3,1.4-5.1-1-4.6
		c-2.5,0.5-8.9,9.2-12.6,12.5c-3.8,3.3-6.2-4.2-8.1-7.8C171.6,568.4,185.3,568,189.5,565.9 M194.2,542.2c4.3-0.5,2.2,4,1.7,8.1
		c-0.5,3.9-1.5,4.4-5.7-1.3C186,543.4,189.5,542.7,194.2,542.2 M228,542.6c4.6,0.6,8.2,1.3,4,6.9c-4.2,5.7-5.3,5.2-5.7,1.3
		c-0.5-4-2.7-8.5,1.7-8.1 M429.1,579c-2.3,0-5,12.7-4.8,17.1c0,2.9-5.4,6.2-10.9,3.6c-5.4-2.6-4.5-9-1.4-12.6
		c2.5-2.8,6.9-9.2,8.3-10.7c1-1.3,1.3-5.1-1.1-4.6c-2.6,0.5-8.9,9.2-12.7,12.5c-3.7,3.3-6.1-4.2-8-7.8c-2.8-8.1,10.8-8.4,15-10.6
		c6.8-3.6,12-14.1,13.2-21.2c1.6-9.2,3.6-13,8.5-13.2c4.7,0,6.7,4,8.4,13.2c1.2,7.2,6.5,17.6,13.2,21.2c4.2,2.2,17.9,2.6,15.1,10.6
		c-1.9,3.6-4.4,11.1-8.1,7.8c-3.8-3.4-10.1-12.1-12.6-12.5c-2.5-0.5-2.1,3.3-1.1,4.6c1.4,1.6,5.7,7.9,8.3,10.7
		c3.1,3.6,4,10.1-1.4,12.6c-5.5,2.6-11.1-0.7-10.9-3.6c0.2-4.4-2.5-17.1-4.8-17.1s-2,3.4-1.7,6.9c-0.9,7.4,4.2,13.4,3.5,17.2
		c-0.6,3.7-1.4,7.7-7.9,7.7c-6.6-0.2-7.3-4-8-7.7c-0.6-3.8,4.3-9.8,3.5-17.2C431,582.5,430.9,579,429.1,579 M418.2,542.2
		c4.4-0.5,2.2,4,1.8,8.1c-0.5,3.9-1.5,4.4-5.8-1.3C410,543.4,413.6,542.7,418.2,542.2 M451.9,542.6c4.7,0.6,8.2,1.3,4.1,6.9
		c-4.2,5.7-5.4,5.2-5.8,1.3c-0.5-4-2.7-8.5,1.7-8.1 M456,323c-4.2,5.7-5.4,5.3-5.8,1.3c-0.5-3.9-2.7-8.6,1.7-8.2
		C456.6,316.7,460.1,317.4,456,323 M418.2,315.7c4.4-0.5,2.2,4.1,1.8,8c-0.5,4.1-1.5,4.5-5.8-1.1C410,316.8,413.6,316.1,418.2,315.7
		 M413.5,339.4c6.8-3.6,12-14,13.2-21.2c1.6-9.3,3.6-13.1,8.5-13.3c4.7,0,6.7,4,8.4,13.3c1.2,7.2,6.5,17.6,13.2,21.2
		c4.2,2.3,17.9,2.6,15.1,10.6c-1.9,3.8-4.4,11.1-8.1,7.8c-3.8-3.3-10.1-12-12.6-12.5s-2.1,3.4-1.1,4.6c1.4,1.7,5.7,7.9,8.3,10.8
		c3.1,3.5,4,10.1-1.4,12.7c-5.5,2.6-11.1-0.8-10.9-3.7c0.2-4.4-2.5-17-4.8-17s-2,3.2-1.7,6.8c-0.9,7.5,4.2,13.4,3.5,17.2
		c-0.6,3.8-1.4,7.7-7.9,7.6c-6.6-0.2-7.3-3.8-8-7.6c-0.6-3.8,4.3-9.7,3.5-17.2c0.3-3.6,0.2-6.8-1.7-6.8s-5,12.6-4.8,17
		c0,2.9-5.4,6.3-10.9,3.7c-5.4-2.6-4.5-9.1-1.4-12.6c2.5-3,6.9-9.2,8.3-10.9c1-1.1,1.3-5.1-1.1-4.6c-2.6,0.5-8.9,9.2-12.7,12.5
		c-3.7,3.4-6.1-4-8-7.8C395.6,342,409.2,341.6,413.5,339.4 M435.2,429.7c-3.1-31.8,16.8-40.8,40.4-39.1c-3.1-31.6,13-42,41.1-40.8
		c-3.8-37.1,21.2-41.4,40.5-40.1c-3-27.6,16.6-39,29.9-40.4h4.2c-1.9,126.9-44.1,225.3-94.8,298.6c-21.1-5.3-24.4-22.4-22.8-37.8
		c-31.1,3.7-43.5-18.8-39.2-40.2c-11.8,4.3-37.4-1.9-40.4-24.4c-3.1-22.5,14.9-35.9,41.1-35.9 M339.9,429.5c4.7,0.5,8.3,1.2,4.2,6.7
		c-4.3,5.7-5.3,5.3-5.8,1.3S335.6,429,339.9,429.5 M306.2,429c4.3-0.5,2.2,4.2,1.7,8.1c-0.5,4-1.6,4.5-5.7-1.2
		C297.9,430.3,301.5,429.5,306.2,429 M301.5,452.5c6.7-3.6,12-14,13.2-21.2c1.6-9.2,3.6-13.1,8.4-13.2c4.9-0.2,6.8,4,8.4,13.2
		c1.3,7.1,6.5,17.6,13.3,21.2c4.2,2.2,17.9,2.6,15.1,10.7c-1.9,3.7-4.4,11.1-8.1,7.7c-3.8-3.3-10.2-12-12.6-12.5
		c-2.5-0.5-2.2,3.3-1.1,4.6c1.3,1.7,5.7,7.9,8.2,10.8c3.1,3.5,4,10.1-1.4,12.6c-5.5,2.6-11-0.8-10.9-3.6c0.3-4.5-2.5-17-4.8-17
		s-1.9,3.1-1.7,6.7c-0.7,7.6,4.2,13.5,3.6,17.3c-0.7,3.8-1.4,7.7-7.9,7.6c-6.5,0-7.3-3.8-7.9-7.6c-0.6-3.9,4.3-9.7,3.6-17.3
		c0.2-3.6,0-6.7-1.8-6.7s-5,12.5-4.8,17c0,2.9-5.4,6.2-10.9,3.6c-5.4-2.6-4.5-9.1-1.4-12.6c2.6-2.9,6.9-9.1,8.3-10.8
		c1-1.3,1.4-5-1.1-4.6c-2.5,0.5-8.9,9.2-12.6,12.5c-3.7,3.4-6.2-4-8.1-7.7C283.7,455.1,297.3,454.8,301.5,452.5 M291.4,572.2
		c-2.5-23.8,11.8-39.5,31.1-39.5s33.6,15.7,31.2,39.5c21.2-6.1,49.2,4.2,42.3,40.8c24.2-8.2,42.8,4.5,43.9,24.4
		c-53.4,56-103.9,87-118.3,95.5c-14.8-8.4-64.2-39-116.7-93.7c0-20.9,19.2-34.7,44.2-26.2C242.3,576.6,270.3,566.3,291.4,572.2
		 M251.6,465.6c-3.1,22.5-28.7,28.7-40.4,24.4c4.3,21.4-8.1,43.8-39.2,40.2c1.8,16-1.7,33.9-24.8,38.2
		c-50.7-73.2-93.1-171.9-95-298.9h6.4c13.3,1.5,32.9,12.8,30,40.4c19.3-1.3,44.2,3.1,40.5,40.1c28-1.2,44.2,9.2,41,40.8
		c23.7-1.7,43.6,7.3,40.5,39.1c26.1,0,44.1,13.4,41,35.9 M190.9,323.7c-0.5,4.1-1.6,4.5-5.8-1.1c-4.1-5.8-0.6-6.5,4.1-6.9
		C193.6,315.2,191.4,319.8,190.9,323.7 M222.9,316.1c4.7,0.6,8.3,1.3,4.1,6.9c-4.3,5.7-5.3,5.3-5.7,1.3
		C220.8,320.5,218.7,315.8,222.9,316.1 M214.5,318.1c1.3,7.2,6.5,17.6,13.3,21.2c4.2,2.3,17.9,2.6,15.1,10.6
		c-1.9,3.8-4.4,11.2-8.1,7.8c-3.7-3.3-10.1-12-12.6-12.5s-2.1,3.4-1,4.6c1.4,1.7,5.7,7.9,8.2,10.9c3.1,3.5,4,10.1-1.4,12.6
		c-5.5,2.6-11-0.8-10.9-3.7c0.2-4.4-2.5-17-4.9-17s-1.9,3.2-1.6,6.8c-0.8,7.5,4.2,13.4,3.5,17.2c-0.6,3.8-1.4,7.7-7.9,7.6
		c-6.5-0.2-7.3-3.8-8-7.6c-0.6-3.8,4.5-9.7,3.6-17.2c0.3-3.6,0.2-6.8-1.7-6.8s-5,12.6-4.9,17c0.2,2.9-5.4,6.3-10.8,3.7
		c-5.5-2.6-4.6-9.1-1.4-12.6c2.5-3,6.9-9.2,8.2-10.9c1.1-1.1,1.4-5.1-1-4.6c-2.5,0.5-8.9,9.2-12.6,12.5c-3.7,3.4-6.2-4-8-7.8
		c-2.8-8,10.8-8.3,15.1-10.6c6.8-3.6,12-14,13.3-21.2c1.6-9.3,3.6-13.1,8.4-13.3c4.9,0,6.8,4,8.4,13.3"/>
</g>
</svg>
