<svg width="25" height="25" viewBox="0 0 25 25" fill="none" xmlns="http://www.w3.org/2000/svg">
<g clip-path="url(#clip0_2001_5023)">
<path d="M22.5905 0.31958H1.80114C0.805273 0.31958 0 1.10579 0 2.07784V22.953C0 23.9251 0.805273 24.716 1.80114 24.716H22.5905C23.5864 24.716 24.3965 23.9251 24.3965 22.9578V2.07784C24.3965 1.10579 23.5864 0.31958 22.5905 0.31958ZM7.23793 21.109H3.61658V9.46348H7.23793V21.109ZM5.42726 7.87676C4.26461 7.87676 3.32592 6.93807 3.32592 5.78019C3.32592 4.62231 4.26461 3.68362 5.42726 3.68362C6.58514 3.68362 7.52383 4.62231 7.52383 5.78019C7.52383 6.9333 6.58514 7.87676 5.42726 7.87676ZM20.7894 21.109H17.1728V15.4482C17.1728 14.0998 17.149 12.3606 15.2907 12.3606C13.4085 12.3606 13.1226 13.8329 13.1226 15.3529V21.109H9.5108V9.46348H12.9797V11.055H13.0273C13.5086 10.1401 14.6903 9.17282 16.4485 9.17282C20.1128 9.17282 20.7894 11.5839 20.7894 14.7192V21.109Z" fill="white"/>
</g>
<defs>
<clipPath id="clip0_2001_5023">
<rect width="24.3965" height="24.3965" fill="white" transform="translate(0 0.31958)"/>
</clipPath>
</defs>
</svg>
