<svg width="28" height="28" viewBox="0 0 28 28" fill="none" xmlns="http://www.w3.org/2000/svg">
<g clip-path="url(#clip0_2001_5029)">
<path d="M27.3315 8.67559C27.3315 8.67559 27.0619 6.77225 26.2316 5.9365C25.1802 4.83656 24.0047 4.83117 23.4655 4.76646C19.6049 4.48608 13.8086 4.48608 13.8086 4.48608H13.7979C13.7979 4.48608 8.00157 4.48608 4.14098 4.76646C3.60179 4.83117 2.42635 4.83656 1.37493 5.9365C0.544582 6.77225 0.280379 8.67559 0.280379 8.67559C0.280379 8.67559 0 10.9132 0 13.1455V15.2375C0 17.4698 0.274987 19.7074 0.274987 19.7074C0.274987 19.7074 0.544581 21.6107 1.36954 22.4465C2.42096 23.5464 3.80129 23.5087 4.41596 23.6273C6.62664 23.8376 13.8033 23.9023 13.8033 23.9023C13.8033 23.9023 19.6049 23.8915 23.4655 23.6165C24.0047 23.5518 25.1802 23.5464 26.2316 22.4465C27.0619 21.6107 27.3315 19.7074 27.3315 19.7074C27.3315 19.7074 27.6065 17.4752 27.6065 15.2375V13.1455C27.6065 10.9132 27.3315 8.67559 27.3315 8.67559ZM10.9509 17.7771V10.0182L18.4079 13.9111L10.9509 17.7771Z" fill="white"/>
</g>
<defs>
<clipPath id="clip0_2001_5029">
<rect width="27.6065" height="27.6065" fill="white" transform="translate(0 0.393555)"/>
</clipPath>
</defs>
</svg>
