<svg width="26" height="27" viewBox="0 0 26 27" fill="none" xmlns="http://www.w3.org/2000/svg">
<g clip-path="url(#clip0_2001_5031)">
<path d="M12.8402 2.98998C16.271 2.98998 16.6773 3.00503 18.0265 3.06522C19.2804 3.12039 19.9575 3.33105 20.409 3.5066C21.0058 3.73732 21.4372 4.0182 21.8836 4.4646C22.335 4.91602 22.6109 5.34235 22.8416 5.93922C23.0171 6.39064 23.2278 7.07277 23.283 8.32169C23.3431 9.67593 23.3582 10.0822 23.3582 13.5079C23.3582 16.9387 23.3431 17.345 23.283 18.6942C23.2278 19.9481 23.0171 20.6252 22.8416 21.0767C22.6109 21.6735 22.33 22.1049 21.8836 22.5513C21.4322 23.0027 21.0058 23.2786 20.409 23.5093C19.9575 23.6848 19.2754 23.8955 18.0265 23.9507C16.6722 24.0108 16.266 24.0259 12.8402 24.0259C9.40949 24.0259 9.00321 24.0108 7.65399 23.9507C6.40006 23.8955 5.72293 23.6848 5.27152 23.5093C4.67465 23.2786 4.2433 22.9977 3.7969 22.5513C3.34548 22.0999 3.06962 21.6735 2.8389 21.0767C2.66335 20.6252 2.45269 19.9431 2.39751 18.6942C2.33732 17.3399 2.32228 16.9337 2.32228 13.5079C2.32228 10.0772 2.33732 9.67091 2.39751 8.32169C2.45269 7.06776 2.66335 6.39064 2.8389 5.93922C3.06962 5.34235 3.3505 4.911 3.7969 4.4646C4.24831 4.01319 4.67465 3.73732 5.27152 3.5066C5.72293 3.33105 6.40507 3.12039 7.65399 3.06522C9.00321 3.00503 9.40949 2.98998 12.8402 2.98998ZM12.8402 0.677734C9.35431 0.677734 8.91794 0.692782 7.54865 0.75297C6.18438 0.813159 5.24644 1.03385 4.43389 1.34984C3.58624 1.68088 2.86899 2.11725 2.15676 2.83449C1.43951 3.54672 1.00314 4.26397 0.672106 5.10661C0.356116 5.92417 0.135424 6.8571 0.0752358 8.22137C0.0150472 9.59568 0 10.032 0 13.518C0 17.0039 0.0150472 17.4403 0.0752358 18.8096C0.135424 20.1738 0.356116 21.1118 0.672106 21.9243C1.00314 22.772 1.43951 23.4892 2.15676 24.2014C2.86899 24.9137 3.58624 25.3551 4.42888 25.6811C5.24644 25.9971 6.17936 26.2178 7.54364 26.278C8.91293 26.3381 9.3493 26.3532 12.8352 26.3532C16.3211 26.3532 16.7575 26.3381 18.1268 26.278C19.4911 26.2178 20.429 25.9971 21.2416 25.6811C22.0842 25.3551 22.8014 24.9137 23.5137 24.2014C24.2259 23.4892 24.6673 22.772 24.9933 21.9293C25.3093 21.1118 25.53 20.1788 25.5902 18.8146C25.6504 17.4453 25.6654 17.0089 25.6654 13.523C25.6654 10.0371 25.6504 9.60069 25.5902 8.2314C25.53 6.86713 25.3093 5.92919 24.9933 5.11664C24.6773 4.26397 24.241 3.54672 23.5237 2.83449C22.8115 2.12226 22.0942 1.68088 21.2516 1.35486C20.434 1.03887 19.5011 0.818174 18.1368 0.757986C16.7625 0.692782 16.3262 0.677734 12.8402 0.677734Z" fill="white"/>
<path d="M12.8403 6.92236C9.19889 6.92236 6.24463 9.87662 6.24463 13.518C6.24463 17.1594 9.19889 20.1137 12.8403 20.1137C16.4817 20.1137 19.436 17.1594 19.436 13.518C19.436 9.87662 16.4817 6.92236 12.8403 6.92236ZM12.8403 17.7964C10.4779 17.7964 8.56189 15.8804 8.56189 13.518C8.56189 11.1556 10.4779 9.23962 12.8403 9.23962C15.2027 9.23962 17.1187 11.1556 17.1187 13.518C17.1187 15.8804 15.2027 17.7964 12.8403 17.7964Z" fill="white"/>
<path d="M21.2364 6.66141C21.2364 7.51408 20.5442 8.20124 19.6966 8.20124C18.8439 8.20124 18.1567 7.50907 18.1567 6.66141C18.1567 5.80874 18.8489 5.12158 19.6966 5.12158C20.5442 5.12158 21.2364 5.81375 21.2364 6.66141Z" fill="white"/>
</g>
<defs>
<clipPath id="clip0_2001_5031">
<rect width="25.6805" height="25.6805" fill="white" transform="translate(0 0.677734)"/>
</clipPath>
</defs>
</svg>
