<svg width="26" height="26" viewBox="0 0 26 26" fill="none" xmlns="http://www.w3.org/2000/svg">
<g clip-path="url(#clip0_2001_5027)">
<path d="M12.8402 0C5.74883 0 0 5.74883 0 12.8402C0 18.8618 4.14586 23.9147 9.73855 25.3025V16.7642H7.09089V12.8402H9.73855V11.1494C9.73855 6.77913 11.7165 4.75346 16.0072 4.75346C16.8207 4.75346 18.2244 4.91319 18.7986 5.07241V8.62915C18.4956 8.59731 17.9691 8.58139 17.3153 8.58139C15.21 8.58139 14.3965 9.37902 14.3965 11.4525V12.8402H18.5906L17.87 16.7642H14.3965V25.5865C20.7544 24.8186 25.681 19.4052 25.681 12.8402C25.6805 5.74883 19.9316 0 12.8402 0Z" fill="white"/>
</g>
<defs>
<clipPath id="clip0_2001_5027">
<rect width="25.6805" height="25.6805" fill="white"/>
</clipPath>
</defs>
</svg>
