<svg width="26" height="27" viewBox="0 0 26 27" fill="none" xmlns="http://www.w3.org/2000/svg">
<g clip-path="url(#clip0_2001_5025)">
<path fill-rule="evenodd" clip-rule="evenodd" d="M25.6805 12.0297C25.6805 6.35117 19.9317 1.7478 12.8402 1.7478C5.74868 1.7478 -0.000185286 6.35117 4.47893e-09 12.0297C4.47893e-09 17.0913 4.56761 21.2985 10.5824 22.153L10.5851 22.1534C10.7263 22.1734 10.8688 22.191 11.0117 22.2074C12.2902 22.4737 12.0787 23.5727 11.9025 24.4884C11.7965 25.0395 11.7032 25.5242 11.9551 25.7211C12.7265 26.3239 18.5711 22.4164 22.1219 19.1344C22.6358 18.704 23.1032 18.2378 23.5183 17.7412L23.5258 17.7331C23.6248 17.624 23.7034 17.5252 23.7635 17.4358C24.9786 15.8651 25.6805 14.0132 25.6805 12.0297ZM7.98031 15.3088H5.39063C5.02227 15.3088 4.72098 15.0074 4.72098 14.6389V9.67221C4.72098 9.30384 5.02227 9.00255 5.39063 9.00255H5.4465C5.81487 9.00255 6.11616 9.30384 6.11616 9.67221V13.9135H7.98031C8.34868 13.9135 8.64997 14.2148 8.64997 14.5832V14.639C8.64997 15.0074 8.34868 15.3088 7.98031 15.3088ZM21.4376 12.1397V12.1956C21.4376 12.5638 21.1362 12.8652 20.7679 12.865H18.9038V13.9254H20.7679C21.1362 13.9254 21.4376 14.2267 21.4376 14.595V14.6509C21.4376 15.0193 21.1362 15.3206 20.7679 15.3206H18.1782C17.8098 15.3206 17.5085 15.0193 17.5085 14.6509V9.68416C17.5085 9.31579 17.8098 9.0145 18.1782 9.0145H20.7679C21.1362 9.0145 21.4376 9.31579 21.4376 9.68416V9.74002C21.4376 10.1084 21.1362 10.4097 20.7679 10.4097H18.9038V11.47H20.7679C21.1362 11.47 21.4376 11.7713 21.4376 12.1397ZM16.4574 15.1091C16.4176 15.1576 16.3612 15.1987 16.2942 15.2306C16.1979 15.282 16.0905 15.3088 15.9813 15.3088H15.9255C15.8357 15.3088 15.7499 15.2908 15.6714 15.2584C15.5693 15.2201 15.4777 15.1575 15.4107 15.0661C15.393 15.0448 15.3765 15.0222 15.3615 14.9989L12.9236 11.669V14.6391C12.9236 15.0075 12.6223 15.3089 12.254 15.3089H12.1981C11.8296 15.3089 11.5283 15.0075 11.5283 14.6391V9.67239C11.5283 9.30403 11.8297 9.00274 12.1981 9.00274H12.254C12.5021 9.00274 12.7198 9.13948 12.8354 9.34136L15.2559 12.5879V9.67239C15.2559 9.30403 15.5572 9.00274 15.9256 9.00274H15.9814C16.3499 9.00274 16.6512 9.30403 16.6512 9.67239V14.6391C16.6511 14.8151 16.5813 14.9842 16.4574 15.1091ZM9.916 15.3088H9.86013C9.49176 15.3088 9.19038 15.0074 9.19038 14.639V9.6723C9.19038 9.30393 9.49176 9.00264 9.86013 9.00264H9.916C10.2844 9.00264 10.5857 9.30393 10.5857 9.6723V14.639C10.5857 15.0074 10.2844 15.3088 9.916 15.3088Z" fill="white"/>
</g>
<defs>
<clipPath id="clip0_2001_5025">
<rect width="25.6805" height="25.6805" fill="white" transform="translate(0 0.677734)"/>
</clipPath>
</defs>
</svg>
